<svg width="26" height="26" viewBox="0 0 26 26" fill="none" xmlns="http://www.w3.org/2000/svg">
<path d="M1.08331 2.70825H2.98756C3.46595 2.70825 3.70514 2.70825 3.89959 2.79499C4.07102 2.87146 4.21746 2.99463 4.32217 3.15042C4.44094 3.32714 4.48193 3.56279 4.5639 4.03411L4.99273 6.49992M4.99273 6.49992L5.99171 12.244C6.17089 13.2743 6.26047 13.7894 6.52581 14.1605C6.75943 14.4873 7.08604 14.7361 7.46309 14.8746C7.8913 15.0319 8.41174 14.9816 9.45262 14.8808L20.3999 13.8214C21.4212 13.7226 21.9319 13.6732 22.3178 13.4425C22.6577 13.2393 22.9297 12.9397 23.0992 12.5818C23.2916 12.1754 23.2916 11.6624 23.2916 10.6363V10.1483C23.2916 9.05774 23.2916 8.51248 23.0816 8.09113C22.8969 7.72036 22.6015 7.41612 22.2363 7.22044C21.8214 6.99806 21.2764 6.98193 20.1863 6.94966L4.99273 6.49992Z" stroke="#333D4D" stroke-width="1.8" stroke-linecap="round" stroke-linejoin="round"/>
<ellipse cx="9.20835" cy="20.5834" rx="2.16667" ry="2.16667" stroke="#333D4D" stroke-width="1.8"/>
<ellipse cx="19.5" cy="20.5834" rx="2.16667" ry="2.16667" stroke="#333D4D" stroke-width="1.8"/>
</svg>
