<svg width="22" height="21" viewBox="0 0 22 21" fill="none" xmlns="http://www.w3.org/2000/svg">
<path d="M7.73913 8.03236H9.04348M12.9565 12.9674H14.2609M14.2609 7.41547L7.73913 13.5843M10.0889 2.22051L8.61622 3.61346C8.37457 3.84203 8.04682 3.97045 7.70507 3.97045H5.38558C4.67393 3.97045 4.09702 4.51614 4.09702 5.18928V7.38326C4.09702 7.70651 3.96126 8.01652 3.71961 8.2451L2.24698 9.63805C1.74376 10.114 1.74376 10.8857 2.24698 11.3617L3.71961 12.7547C3.96126 12.9833 4.09702 13.2933 4.09702 13.6165V15.8105C4.09702 16.4836 4.67393 17.0293 5.38558 17.0293H7.70507C8.04682 17.0293 8.37457 17.1577 8.61622 17.3863L10.0889 18.7793C10.5921 19.2552 11.4079 19.2552 11.9111 18.7793L13.3838 17.3863C13.6254 17.1577 13.9532 17.0293 14.2949 17.0293H16.6144C17.3261 17.0293 17.903 16.4836 17.903 15.8105V13.6165C17.903 13.2933 18.0387 12.9833 18.2804 12.7547L19.753 11.3617C20.2562 10.8858 20.2562 10.114 19.753 9.63805L18.2804 8.2451C18.0387 8.01652 17.903 7.70651 17.903 7.38326V5.18928C17.903 4.51614 17.3261 3.97045 16.6144 3.97045H14.2949C13.9532 3.97045 13.6254 3.84203 13.3838 3.61346L11.9111 2.22051C11.4079 1.74453 10.5921 1.74453 10.0889 2.22051Z" stroke="#D50032" stroke-width="1.8"/>
</svg>
