<svg width="92" height="92" viewBox="0 0 92 92" fill="none" xmlns="http://www.w3.org/2000/svg">
<path d="M90.4667 0H1.53333C0.68655 0 0 0.68655 0 1.53333V84.3333C0 85.1801 0.68655 85.8667 1.53333 85.8667H6.13333V90.4667C6.13333 91.3134 6.81988 92 7.66667 92H84.3333C85.1801 92 85.8667 91.3134 85.8667 90.4667V85.8667H90.4667C91.3134 85.8667 92 85.1801 92 84.3333V1.53333C92 0.68655 91.3134 0 90.4667 0ZM82.8 88.9333H9.2V85.8667H82.8V88.9333ZM88.9333 82.8H3.06667V3.06667H88.9333V82.8Z" fill="black"/>
<path d="M78.2 18.4H13.8C9.568 18.405 6.13831 21.8347 6.13333 26.0667V70.5334C6.13831 74.7654 9.568 78.195 13.8 78.2H78.2C82.432 78.195 85.8617 74.7654 85.8667 70.5334V26.0667C85.8617 21.8347 82.432 18.405 78.2 18.4ZM13.8399 62.8667H13.8C12.9532 62.8667 12.2667 63.5532 12.2667 64.4C12.2722 66.0645 12.8252 67.6808 13.8399 69H13.8C12.9532 69 12.2667 69.6866 12.2667 70.5334C12.2722 72.1978 12.8252 73.8141 13.8399 75.1334H13.8C11.2595 75.1334 9.2 73.0739 9.2 70.5334V26.0667C9.2 23.5261 11.2595 21.4667 13.8 21.4667H78.2C80.7405 21.4667 82.8 23.5261 82.8 26.0667V39.8928C77.2127 29.3933 65.2288 24.0049 53.6667 26.7935V24.5334H38.3333V33.7334H41.354C36.8602 38.246 34.1669 44.2432 33.7793 50.6H30.6667V35.2667H26.0667V30.6667H30.6667V27.6H18.4V30.6667H23V35.2667H18.4V50.6H13.8C12.9532 50.6 12.2667 51.2866 12.2667 52.1334C12.2722 53.7978 12.8252 55.4141 13.8399 56.7334H13.8C12.9532 56.7334 12.2667 57.4199 12.2667 58.2667C12.2722 59.9311 12.8252 61.5475 13.8399 62.8667ZM50.6 27.6V30.6667H41.4V27.6H50.6ZM27.6 38.3334V50.6H21.4667V38.3334H27.6ZM56.7333 75.1334H19.9333C17.9845 75.1311 16.2478 73.9032 15.5955 72.0667H61.0711C60.4189 73.9032 58.6822 75.1311 56.7333 75.1334ZM56.7333 69H19.9333C17.9845 68.9977 16.2478 67.7699 15.5955 65.9334H61.0711C60.4189 67.7699 58.6822 68.9977 56.7333 69ZM56.7333 62.8667H19.9333C17.9845 62.8644 16.2478 61.6366 15.5955 59.8H61.0711C60.4189 61.6366 58.6822 62.8644 56.7333 62.8667ZM56.7333 56.7334H19.9333C17.9845 56.7311 16.2478 55.5032 15.5955 53.6667H61.0711C60.4189 55.5032 58.6822 56.7311 56.7333 56.7334ZM62.8268 62.8667C63.8415 61.5475 64.3944 59.9311 64.4 58.2667C64.4 57.4199 63.7135 56.7334 62.8667 56.7334H62.8268C63.8415 55.4141 64.3944 53.7978 64.4 52.1334C64.4 51.2866 63.7135 50.6 62.8667 50.6H44.5449C45.3874 42.1736 52.9013 36.0259 61.3278 36.8685C69.7542 37.711 75.9019 45.2249 75.0594 53.6514C74.4316 59.9284 70.0237 65.1803 63.9507 66.8871C64.2388 66.089 64.3906 65.2483 64.4 64.4C64.4 63.5532 63.7135 62.8667 62.8667 62.8667H62.8268ZM82.8 70.5334C82.8 73.0739 80.7405 75.1334 78.2 75.1334H72.0406C76.6109 72.6883 80.3549 68.9443 82.8 64.374V70.5334ZM65.9759 74.2657C65.011 74.5338 64.0299 74.7387 63.0384 74.8788C63.9243 73.6029 64.3994 72.0866 64.4 70.5334C64.3977 70.3425 64.3597 70.1537 64.2881 69.9768C74.1451 67.5062 80.1332 57.5125 77.6626 47.6554C75.192 37.7982 65.1983 31.8104 55.3413 34.2809C47.7051 36.1949 42.1325 42.7549 41.4784 50.6H36.892C37.343 43.916 40.6807 37.7591 46.0353 33.7334H53.6667V29.9782C65.8963 26.5792 78.5659 33.7378 81.9651 45.9674C85.3641 58.1969 78.2056 70.8667 65.9759 74.2657Z" fill="black"/>
<path d="M19.9333 6.1333H7.66666C6.81988 6.1333 6.13333 6.81985 6.13333 7.66663V13.8C6.13333 14.6468 6.81988 15.3333 7.66666 15.3333H19.9333C20.7801 15.3333 21.4667 14.6468 21.4667 13.8V7.66663C21.4667 6.81985 20.7801 6.1333 19.9333 6.1333ZM18.4 12.2666H9.2V9.19997H18.4V12.2666Z" fill="black"/>
<path d="M38.3333 6.1333H26.0667C25.2199 6.1333 24.5333 6.81985 24.5333 7.66663V13.8C24.5333 14.6468 25.2199 15.3333 26.0667 15.3333H38.3333C39.1801 15.3333 39.8667 14.6468 39.8667 13.8V7.66663C39.8667 6.81985 39.1801 6.1333 38.3333 6.1333ZM36.8 12.2666H27.6V9.19997H36.8V12.2666Z" fill="black"/>
<path d="M85.8667 6.1333H82.8V15.3333H85.8667V6.1333Z" fill="black"/>
<path d="M79.7333 6.1333H76.6667V15.3333H79.7333V6.1333Z" fill="black"/>
<path d="M73.6 6.1333H70.5333V15.3333H73.6V6.1333Z" fill="black"/>
</svg>
