<svg width="98" height="98" viewBox="0 0 98 98" fill="none" xmlns="http://www.w3.org/2000/svg">
<path d="M97.9866 78.2004C97.9843 78.182 97.9811 78.1638 97.9782 78.1456C97.9696 78.0911 97.9585 78.0373 97.9447 77.9847C97.9409 77.9701 97.9376 77.9554 97.9334 77.9408C97.9139 77.874 97.8905 77.809 97.8632 77.746C97.8593 77.7374 97.8547 77.7289 97.8509 77.7203C97.8243 77.6621 97.7943 77.6063 97.7611 77.5519C97.7552 77.5421 97.7495 77.5322 97.7431 77.5224C97.7022 77.4583 97.6572 77.397 97.608 77.3394L70.2333 45.1338V9.80002C70.2333 8.89677 69.5033 8.16675 68.6 8.16675H29.4C28.4968 8.16675 27.7667 8.89677 27.7667 9.80002V45.1342L0.396977 77.3337C0.345105 77.3938 0.297828 77.4577 0.254953 77.5251C0.250168 77.5326 0.245957 77.54 0.241363 77.5475C0.205953 77.6051 0.173988 77.6646 0.145852 77.7266C0.143363 77.7322 0.140301 77.7376 0.137813 77.7431C0.109293 77.8078 0.0853672 77.8748 0.0654609 77.9437C0.062207 77.955 0.0597188 77.9663 0.0566563 77.9778C0.0415352 78.0346 0.0294766 78.0924 0.0204805 78.1516C0.0181836 78.1665 0.0155039 78.1814 0.0135898 78.1965C0.00574219 78.2633 0 78.3309 0 78.4V88.2C0 89.1033 0.730024 89.8333 1.63327 89.8333H96.3665C97.2698 89.8333 97.9998 89.1033 97.9998 88.2V78.4C98 78.3323 97.9946 78.266 97.9866 78.2004ZM31.0333 11.4333H66.9665V44.1H31.0333V11.4333ZM30.1564 47.3667H67.844L92.8357 76.7667H5.16472L30.1564 47.3667ZM94.7333 86.5667H3.26673V80.0335H94.7335V86.5667H94.7333Z" fill="black"/>
<path d="M69.7392 63.958L65.9074 56.2978C65.1674 54.8195 63.6829 53.9 62.0299 53.9H35.9699C34.3169 53.9 32.8322 54.8195 32.0924 56.2978L28.2607 63.958C27.5844 65.3138 27.6547 66.8898 28.4501 68.177C29.2472 69.464 30.6257 70.2333 32.1382 70.2333H65.8616C67.3757 70.2333 68.7527 69.464 69.5497 68.177C70.3451 66.89 70.4154 65.3138 69.7392 63.958ZM66.7697 66.4588C66.6767 66.6123 66.3989 66.9668 65.8615 66.9668H32.1382C31.6009 66.9668 31.3232 66.6123 31.2299 66.4588C31.1352 66.3085 30.9424 65.9018 31.1827 65.42L35.0144 57.758C35.1957 57.3938 35.5632 57.1668 35.9699 57.1668H62.0297C62.4364 57.1668 62.8039 57.3938 62.9852 57.758L66.817 65.42C67.0572 65.9018 66.8644 66.3085 66.7697 66.4588Z" fill="black"/>
<path d="M58.7999 60.4333H39.1999C38.2967 60.4333 37.5667 61.1633 37.5667 62.0666C37.5667 62.9698 38.2967 63.6998 39.1999 63.6998H58.7999C59.7032 63.6998 60.4332 62.9698 60.4332 62.0666C60.4332 61.1633 59.7032 60.4333 58.7999 60.4333Z" fill="black"/>
</svg>
