<svg width="57" height="98" viewBox="0 0 57 98" fill="none" xmlns="http://www.w3.org/2000/svg">
<path fill-rule="evenodd" clip-rule="evenodd" d="M6.68326 0.0957031C6.68326 0.148914 6.42863 0.191406 6.11041 0.191406C5.79219 0.191406 5.53756 0.233898 5.53756 0.287109C5.53756 0.339746 5.40867 0.382812 5.25114 0.382812C5.0936 0.382812 4.96471 0.425879 4.96471 0.478516C4.96471 0.531152 4.87878 0.574219 4.77376 0.574219C4.66874 0.574219 4.58281 0.617285 4.58281 0.669922C4.58281 0.722559 4.49688 0.765625 4.39186 0.765625C4.28684 0.765625 4.20091 0.808691 4.20091 0.861328C4.20091 0.913965 4.11498 0.957031 4.00996 0.957031C3.90494 0.957031 3.81901 1.0001 3.81901 1.05273C3.81901 1.10537 3.74253 1.14844 3.64916 1.14844C3.55569 1.14844 3.41734 1.23457 3.34163 1.33984C3.26592 1.44512 3.14839 1.53125 3.08032 1.53125C2.91906 1.53125 1.5276 2.92603 1.5276 3.08767C1.5276 3.15591 1.44168 3.27372 1.33665 3.34961C1.23163 3.4255 1.1457 3.56418 1.1457 3.65787C1.1457 3.75147 1.10274 3.82812 1.05023 3.82812C0.997716 3.82812 0.954752 3.91426 0.954752 4.01953C0.954752 4.1248 0.911788 4.21094 0.859277 4.21094C0.806766 4.21094 0.763802 4.29707 0.763802 4.40234C0.763802 4.50762 0.720838 4.59375 0.668326 4.59375C0.615815 4.59375 0.572851 4.67988 0.572851 4.78516C0.572851 4.89043 0.529887 4.97656 0.477376 4.97656C0.424865 4.97656 0.381901 5.10576 0.381901 5.26367C0.381901 5.42158 0.338937 5.55078 0.286426 5.55078C0.233914 5.55078 0.19095 5.76611 0.19095 6.0293C0.19095 6.29248 0.147987 6.50781 0.0954752 6.50781C0.0319842 6.50781 0 19.651 0 45.7461C0 71.8412 0.0319842 84.9844 0.0954752 84.9844C0.147987 84.9844 0.19095 85.1997 0.19095 85.4629C0.19095 85.7261 0.233914 85.9414 0.286426 85.9414C0.338937 85.9414 0.381901 86.0275 0.381901 86.1328C0.381901 86.2381 0.424865 86.3242 0.477376 86.3242C0.529887 86.3242 0.572851 86.4534 0.572851 86.6113C0.572851 86.7692 0.615815 86.8984 0.668326 86.8984C0.720838 86.8984 0.763802 86.9846 0.763802 87.0898C0.763802 87.1951 0.806766 87.2812 0.859277 87.2812C0.911788 87.2812 0.954752 87.3579 0.954752 87.4515C0.954752 87.5452 1.04068 87.6839 1.1457 87.7598C1.25073 87.8357 1.33665 87.9571 1.33665 88.0296C1.33665 88.1021 1.46554 88.2822 1.62308 88.4297C1.78061 88.5772 1.9095 88.7668 1.9095 88.8509C1.9095 88.9351 1.97634 89.0039 2.05797 89.0039C2.13969 89.0039 2.45954 89.2623 2.76878 89.5781C3.07803 89.8939 3.39787 90.1523 3.47959 90.1523C3.56123 90.1523 3.62806 90.1954 3.62806 90.248C3.62806 90.3007 3.71399 90.3438 3.81901 90.3438C3.92403 90.3438 4.00996 90.3868 4.00996 90.4395C4.00996 90.4921 4.07746 90.5352 4.15995 90.5352C4.55159 90.5352 4.58281 90.7149 4.58281 92.9688C4.58281 94.3451 4.61747 95.1289 4.67829 95.1289C4.7308 95.1289 4.77376 95.2581 4.77376 95.416C4.77376 95.5739 4.81672 95.7031 4.86924 95.7031C4.92175 95.7031 4.96471 95.7719 4.96471 95.8562C4.96471 95.9403 5.0936 96.1299 5.25114 96.2773C5.40867 96.4248 5.53756 96.6144 5.53756 96.6985C5.53756 96.7828 5.60621 96.8516 5.69023 96.8516C5.77415 96.8516 5.96329 96.9808 6.11041 97.1387C6.25754 97.2966 6.44668 97.4258 6.5306 97.4258C6.61462 97.4258 6.68326 97.4688 6.68326 97.5215C6.68326 97.5741 6.76919 97.6172 6.87422 97.6172C6.97924 97.6172 7.06517 97.6603 7.06517 97.7129C7.06517 97.7655 7.19406 97.8086 7.35159 97.8086C7.50913 97.8086 7.63802 97.8517 7.63802 97.9043C7.63802 97.9656 8.52909 98 10.1204 98C11.7117 98 12.6027 97.9656 12.6027 97.9043C12.6027 97.8517 12.7746 97.8086 12.9846 97.8086C13.1947 97.8086 13.3665 97.7655 13.3665 97.7129C13.3665 97.6603 13.443 97.6172 13.5364 97.6172C13.6298 97.6172 13.7682 97.5311 13.8439 97.4258C13.9196 97.3205 14.0376 97.2344 14.1062 97.2344C14.2684 97.2344 15.0851 96.4157 15.0851 96.2531C15.0851 96.1844 15.171 96.0661 15.276 95.9902C15.3881 95.9092 15.467 95.7425 15.467 95.5863C15.467 95.44 15.5099 95.3203 15.5625 95.3203C15.615 95.3203 15.6579 95.1911 15.6579 95.0332C15.6579 94.8753 15.7009 94.7461 15.7534 94.7461C15.8136 94.7461 15.8489 94.108 15.8489 93.0234V91.3008H17.1855C18.013 91.3008 18.5222 91.2643 18.5222 91.2051C18.5222 91.1524 18.5897 91.1094 18.6722 91.1094C18.8651 91.1094 19.095 90.8789 19.095 90.6855C19.095 90.6028 19.138 90.5352 19.1905 90.5352C19.243 90.5352 19.286 90.406 19.286 90.248C19.286 90.0901 19.329 89.9609 19.3815 89.9609C19.434 89.9609 19.4769 89.8748 19.4769 89.7695C19.4769 89.6643 19.434 89.5781 19.3815 89.5781C19.329 89.5781 19.286 89.469 19.286 89.3357C19.286 89.0124 18.7046 88.4297 18.3821 88.4297C18.2491 88.4297 18.1403 88.3866 18.1403 88.334C18.1403 88.2712 16.1353 88.2383 12.3163 88.2383C8.49729 88.2383 6.49231 88.2054 6.49231 88.1426C6.49231 88.0899 6.36342 88.0469 6.20589 88.0469C6.04835 88.0469 5.91946 88.0038 5.91946 87.9512C5.91946 87.8985 5.83354 87.8555 5.72851 87.8555C5.62349 87.8555 5.53756 87.8124 5.53756 87.7598C5.53756 87.7071 5.46892 87.6641 5.3849 87.6641C5.30097 87.6641 5.11184 87.5349 4.96471 87.377C4.81758 87.219 4.64687 87.0898 4.58539 87.0898C4.44122 87.0898 4.20091 86.849 4.20091 86.7045C4.20091 86.6428 4.07202 86.4717 3.91448 86.3242C3.75695 86.1767 3.62806 85.9872 3.62806 85.903C3.62806 85.8188 3.58509 85.75 3.53258 85.75C3.48007 85.75 3.43711 85.6208 3.43711 85.4629C3.43711 85.305 3.39414 85.1758 3.34163 85.1758C3.28912 85.1758 3.24616 85.0035 3.24616 84.793C3.24616 84.5824 3.20319 84.4102 3.15068 84.4102C3.08738 84.4102 3.05521 77.6928 3.05521 64.4493C3.05521 47.2773 3.0743 44.4692 3.19164 44.3516C3.30736 44.2355 4.40456 44.2148 10.4478 44.2148C15.1305 44.2148 17.5674 44.1821 17.5674 44.1191C17.5674 44.0665 17.6534 44.0234 17.7584 44.0234C17.8634 44.0234 17.9493 43.9804 17.9493 43.9277C17.9493 43.8751 18.0353 43.832 18.1403 43.832C18.2453 43.832 18.3312 43.789 18.3312 43.7363C18.3312 43.6837 18.3966 43.6406 18.4766 43.6406C18.6535 43.6406 19.6679 42.6418 19.6679 42.4675C19.6679 42.3991 19.7538 42.281 19.8588 42.2051C19.9709 42.124 20.0498 41.9573 20.0498 41.8011C20.0498 41.6549 20.0928 41.5352 20.1453 41.5352C20.1978 41.5352 20.2407 41.3198 20.2407 41.0566C20.2407 40.7935 20.2837 40.5781 20.3362 40.5781C20.3919 40.5781 20.4317 40.2591 20.4317 39.8125V39.0469H37.0034C51.2384 39.0469 53.5944 39.0661 53.7116 39.1836C53.829 39.3013 53.848 42.4539 53.848 61.8653C53.848 76.8314 53.8159 84.4102 53.7525 84.4102C53.7 84.4102 53.6571 84.5824 53.6571 84.793C53.6571 85.0035 53.6141 85.1758 53.5616 85.1758C53.5091 85.1758 53.4661 85.305 53.4661 85.4629C53.4661 85.6208 53.4232 85.75 53.3706 85.75C53.3181 85.75 53.2752 85.8188 53.2752 85.903C53.2752 85.9872 53.1463 86.1767 52.9887 86.3242C52.8312 86.4717 52.7023 86.6428 52.7023 86.7045C52.7023 86.849 52.462 87.0898 52.3178 87.0898C52.2564 87.0898 52.0856 87.219 51.9385 87.377C51.7914 87.5349 51.6023 87.6641 51.5183 87.6641C51.4343 87.6641 51.3657 87.7071 51.3657 87.7598C51.3657 87.8124 51.2797 87.8555 51.1747 87.8555C51.0697 87.8555 50.9838 87.8985 50.9838 87.9512C50.9838 88.0038 50.8549 88.0469 50.6973 88.0469C50.5398 88.0469 50.4109 88.0899 50.4109 88.1426C50.4109 88.2059 45.7326 88.2383 36.567 88.2383C27.4014 88.2383 22.7231 88.2706 22.7231 88.334C22.7231 88.3866 22.6143 88.4297 22.4813 88.4297C22.2123 88.4297 21.5774 88.9988 21.5774 89.24C21.5774 89.3207 21.5344 89.3867 21.4819 89.3867C21.4294 89.3867 21.3864 89.559 21.3864 89.7695C21.3864 89.9801 21.4294 90.1523 21.4819 90.1523C21.5344 90.1523 21.5774 90.2619 21.5774 90.3959C21.5774 90.6645 21.9617 91.1094 22.1937 91.1094C22.2748 91.1094 22.3412 91.1524 22.3412 91.2051C22.3412 91.2682 25.5237 91.3008 31.6978 91.3008H41.0543V93.0234C41.0543 94.108 41.0897 94.7461 41.1498 94.7461C41.2023 94.7461 41.2453 94.8753 41.2453 95.0332C41.2453 95.1911 41.2883 95.3203 41.3408 95.3203C41.3933 95.3203 41.4362 95.44 41.4362 95.5863C41.4362 95.7425 41.5151 95.9092 41.6272 95.9902C41.7322 96.0661 41.8181 96.1844 41.8181 96.2531C41.8181 96.4157 42.6348 97.2344 42.7971 97.2344C42.8656 97.2344 42.9836 97.3205 43.0593 97.4258C43.135 97.5311 43.2734 97.6172 43.3668 97.6172C43.4602 97.6172 43.5367 97.6603 43.5367 97.7129C43.5367 97.7655 43.7086 97.8086 43.9186 97.8086C44.1286 97.8086 44.3005 97.8517 44.3005 97.9043C44.3005 97.9656 45.1916 98 46.7829 98C48.3741 98 49.2652 97.9656 49.2652 97.9043C49.2652 97.8517 49.3941 97.8086 49.5516 97.8086C49.7092 97.8086 49.8381 97.7655 49.8381 97.7129C49.8381 97.6603 49.924 97.6172 50.029 97.6172C50.134 97.6172 50.22 97.5741 50.22 97.5215C50.22 97.4688 50.2886 97.4258 50.3726 97.4258C50.4566 97.4258 50.6457 97.2966 50.7928 97.1387C50.9399 96.9808 51.1291 96.8516 51.213 96.8516C51.297 96.8516 51.3657 96.7828 51.3657 96.6985C51.3657 96.6144 51.4946 96.4248 51.6521 96.2773C51.8096 96.1299 51.9385 95.9403 51.9385 95.8562C51.9385 95.7719 51.9815 95.7031 52.034 95.7031C52.0865 95.7031 52.1295 95.5739 52.1295 95.416C52.1295 95.2581 52.1724 95.1289 52.2249 95.1289C52.2858 95.1289 52.3204 94.3451 52.3204 92.9688C52.3204 90.7149 52.3516 90.5352 52.7433 90.5352C52.8258 90.5352 52.8933 90.4921 52.8933 90.4395C52.8933 90.3868 52.9792 90.3438 53.0842 90.3438C53.1892 90.3438 53.2752 90.3007 53.2752 90.248C53.2752 90.1954 53.342 90.1523 53.4236 90.1523C53.5054 90.1523 53.8252 89.8939 54.1344 89.5781C54.4437 89.2623 54.7635 89.0039 54.8453 89.0039C54.9269 89.0039 54.9937 88.9351 54.9937 88.8509C54.9937 88.7668 55.1226 88.5772 55.2801 88.4297C55.4377 88.2822 55.5666 88.1021 55.5666 88.0296C55.5666 87.9571 55.6525 87.8357 55.7575 87.7598C55.8625 87.6839 55.9485 87.5452 55.9485 87.4515C55.9485 87.3579 55.9914 87.2812 56.0439 87.2812C56.0965 87.2812 56.1394 87.1951 56.1394 87.0898C56.1394 86.9846 56.1824 86.8984 56.2349 86.8984C56.2874 86.8984 56.3304 86.7692 56.3304 86.6113C56.3304 86.4534 56.3733 86.3242 56.4258 86.3242C56.4784 86.3242 56.5213 86.2381 56.5213 86.1328C56.5213 86.0275 56.5643 85.9414 56.6168 85.9414C56.6693 85.9414 56.7123 85.7261 56.7123 85.4629C56.7123 85.1997 56.7552 84.9844 56.8078 84.9844C56.8712 84.9844 56.9032 72.7662 56.9032 48.5215C56.9032 24.2767 56.8712 12.0586 56.8078 12.0586C56.7552 12.0586 56.7123 11.9921 56.7123 11.9107C56.7123 11.7192 56.287 11.293 56.096 11.293C56.0148 11.293 55.9485 11.2499 55.9485 11.1973C55.9485 11.1432 55.6769 11.1016 55.3247 11.1016C54.7402 11.1016 54.6801 11.1225 54.37 11.4334C54.1879 11.6158 54.039 11.8311 54.039 11.9119C54.039 11.9926 53.996 12.0586 53.9435 12.0586C53.8804 12.0586 53.848 16.11 53.848 24.0215V35.9844H28.4516H3.05521V21.4375C3.05521 11.8034 3.08748 6.89062 3.15068 6.89062C3.20319 6.89062 3.24616 6.71836 3.24616 6.50781C3.24616 6.29727 3.28912 6.125 3.34163 6.125C3.39414 6.125 3.43711 6.03887 3.43711 5.93359C3.43711 5.82832 3.48007 5.74219 3.53258 5.74219C3.58509 5.74219 3.62806 5.65605 3.62806 5.55078C3.62806 5.44551 3.67102 5.35938 3.72353 5.35938C3.77604 5.35938 3.81901 5.29401 3.81901 5.214C3.81901 5.0248 5.01283 3.82812 5.20158 3.82812C5.2814 3.82812 5.34661 3.78506 5.34661 3.73242C5.34661 3.67979 5.43254 3.63672 5.53756 3.63672C5.64258 3.63672 5.72851 3.59365 5.72851 3.54102C5.72851 3.48838 5.81444 3.44531 5.91946 3.44531C6.02449 3.44531 6.11041 3.40225 6.11041 3.34961C6.11041 3.29697 6.32523 3.25391 6.58779 3.25391C6.85035 3.25391 7.06517 3.21084 7.06517 3.1582C7.06517 3.09466 14.2576 3.0625 28.4516 3.0625C42.6456 3.0625 49.8381 3.09466 49.8381 3.1582C49.8381 3.21084 50.0529 3.25391 50.3154 3.25391C50.578 3.25391 50.7928 3.29697 50.7928 3.34961C50.7928 3.40225 50.8787 3.44531 50.9838 3.44531C51.0888 3.44531 51.1747 3.48838 51.1747 3.54102C51.1747 3.59365 51.2606 3.63672 51.3657 3.63672C51.4707 3.63672 51.5566 3.67979 51.5566 3.73242C51.5566 3.78506 51.6218 3.82812 51.7016 3.82812C51.8904 3.82812 53.0842 5.0248 53.0842 5.214C53.0842 5.29401 53.1272 5.35938 53.1797 5.35938C53.2322 5.35938 53.2752 5.44551 53.2752 5.55078C53.2752 5.65605 53.3181 5.74219 53.3706 5.74219C53.4232 5.74219 53.4661 5.82832 53.4661 5.93359C53.4661 6.03887 53.5091 6.125 53.5616 6.125C53.6141 6.125 53.6571 6.29727 53.6571 6.50781C53.6571 6.71836 53.7 6.89062 53.7525 6.89062C53.8068 6.89062 53.848 7.17065 53.848 7.5394C53.848 8.0784 53.8803 8.21152 54.039 8.32617C54.144 8.40206 54.2299 8.54074 54.2299 8.63443C54.2299 8.74085 54.3014 8.80469 54.4209 8.80469C54.5259 8.80469 54.6118 8.84775 54.6118 8.90039C54.6118 8.95303 54.6978 8.99609 54.8028 8.99609C54.9078 8.99609 54.9937 9.03916 54.9937 9.0918C54.9937 9.14443 55.1656 9.1875 55.3756 9.1875C55.5857 9.1875 55.7575 9.14443 55.7575 9.0918C55.7575 9.03916 55.8435 8.99609 55.9485 8.99609C56.0535 8.99609 56.1394 8.95303 56.1394 8.90039C56.1394 8.84775 56.2254 8.80469 56.3304 8.80469C56.4498 8.80469 56.5213 8.74085 56.5213 8.63443C56.5213 8.54074 56.6073 8.40206 56.7123 8.32617C56.8783 8.20626 56.9032 8.0784 56.9032 7.34799C56.9032 6.85167 56.8642 6.50781 56.8078 6.50781C56.7552 6.50781 56.7123 6.29248 56.7123 6.0293C56.7123 5.76611 56.6693 5.55078 56.6168 5.55078C56.5643 5.55078 56.5213 5.42158 56.5213 5.26367C56.5213 5.10576 56.4784 4.97656 56.4258 4.97656C56.3733 4.97656 56.3304 4.85684 56.3304 4.7106C56.3304 4.55442 56.2515 4.3877 56.1394 4.30664C56.0344 4.23075 55.9485 4.09207 55.9485 3.99838C55.9485 3.90478 55.9055 3.82812 55.853 3.82812C55.8005 3.82812 55.7575 3.75147 55.7575 3.65787C55.7575 3.56418 55.6716 3.4255 55.5666 3.34961C55.4616 3.27372 55.3756 3.15591 55.3756 3.08767C55.3756 2.92603 53.9842 1.53125 53.8229 1.53125C53.7548 1.53125 53.6373 1.44512 53.5616 1.33984C53.4859 1.23457 53.3475 1.14844 53.2541 1.14844C53.1607 1.14844 53.0842 1.10537 53.0842 1.05273C53.0842 1.0001 52.9983 0.957031 52.8933 0.957031C52.7882 0.957031 52.7023 0.913965 52.7023 0.861328C52.7023 0.808691 52.6164 0.765625 52.5114 0.765625C52.4063 0.765625 52.3204 0.722559 52.3204 0.669922C52.3204 0.617285 52.2345 0.574219 52.1295 0.574219C52.0244 0.574219 51.9385 0.531152 51.9385 0.478516C51.9385 0.425879 51.8096 0.382812 51.6521 0.382812C51.4946 0.382812 51.3657 0.339746 51.3657 0.287109C51.3657 0.233898 51.111 0.191406 50.7928 0.191406C50.4746 0.191406 50.22 0.148914 50.22 0.0957031C50.22 0.0321563 42.9002 0 28.4516 0C14.0031 0 6.68326 0.0321563 6.68326 0.0957031ZM48.215 7.46484C48.1393 7.57012 48.0009 7.65625 47.9075 7.65625C47.8013 7.65625 47.7376 7.72793 47.7376 7.84766C47.7376 7.95293 47.6946 8.03906 47.6421 8.03906C47.5896 8.03906 47.5467 8.16826 47.5467 8.32617C47.5467 8.48408 47.5037 8.61328 47.4512 8.61328C47.3881 8.61328 47.3557 12.3138 47.3557 19.5234C47.3557 26.733 47.3881 30.4336 47.4512 30.4336C47.5037 30.4336 47.5467 30.5427 47.5467 30.676C47.5467 30.9456 48.1144 31.582 48.355 31.582C48.4355 31.582 48.5014 31.6251 48.5014 31.6777C48.5014 31.7304 48.6733 31.7734 48.8833 31.7734C49.0934 31.7734 49.2652 31.7304 49.2652 31.6777C49.2652 31.6251 49.3745 31.582 49.5082 31.582C49.7762 31.582 50.22 31.1968 50.22 30.9643C50.22 30.8829 50.2629 30.8164 50.3154 30.8164C50.3785 30.8164 50.4109 26.9712 50.4109 19.4724V8.12835L50.0799 7.79665C49.8979 7.61414 49.6831 7.46484 49.6025 7.46484C49.522 7.46484 49.4562 7.42178 49.4562 7.36914C49.4562 7.31641 49.2086 7.27344 48.9044 7.27344C48.4622 7.27344 48.3253 7.31143 48.215 7.46484ZM8.97467 12.3457C8.97467 12.3983 8.84578 12.4414 8.68824 12.4414C8.53071 12.4414 8.40182 12.4845 8.40182 12.5371C8.40182 12.5897 8.33432 12.6328 8.25183 12.6328C8.05887 12.6328 7.82897 12.8633 7.82897 13.0567C7.82897 13.1394 7.786 13.207 7.73349 13.207C7.68098 13.207 7.63802 13.3362 7.63802 13.4941C7.63802 13.6521 7.59505 13.7812 7.54254 13.7812C7.47981 13.7812 7.44707 15.9824 7.44707 20.1934C7.44707 24.4043 7.47981 26.6055 7.54254 26.6055C7.59505 26.6055 7.63802 26.7573 7.63802 26.9429C7.63802 27.215 7.72079 27.3634 8.06517 27.7085C8.47686 28.1213 8.51305 28.1367 9.07014 28.1367C9.62724 28.1367 9.66343 28.1213 10.0751 27.7085C10.3555 27.4275 10.5023 27.1974 10.5023 27.0386C10.5023 26.9057 10.5452 26.7969 10.5977 26.7969C10.6603 26.7969 10.6932 24.8509 10.6932 21.1504V15.5039H11.1706C11.4332 15.5039 11.648 15.4608 11.648 15.4082C11.648 15.3556 11.7769 15.3125 11.9344 15.3125C12.0919 15.3125 12.2208 15.2694 12.2208 15.2168C12.2208 15.1642 12.2883 15.1211 12.3708 15.1211C12.5638 15.1211 12.7937 14.8906 12.7937 14.6972C12.7937 14.6145 12.8366 14.5469 12.8892 14.5469C12.9417 14.5469 12.9846 14.4213 12.9846 14.2677C12.9846 14.1142 13.0384 13.9635 13.104 13.9327C13.1994 13.8881 13.1994 13.8658 13.104 13.8212C13.0384 13.7904 12.9846 13.6397 12.9846 13.4862C12.9846 13.3327 12.9417 13.207 12.8892 13.207C12.8366 13.207 12.7937 13.1394 12.7937 13.0567C12.7937 12.8633 12.5638 12.6328 12.3708 12.6328C12.2883 12.6328 12.2208 12.5897 12.2208 12.5371C12.2208 12.4845 12.0919 12.4414 11.9344 12.4414C11.7769 12.4414 11.648 12.3983 11.648 12.3457C11.648 12.2865 11.1388 12.25 10.3113 12.25C9.48384 12.25 8.97467 12.2865 8.97467 12.3457ZM17.1855 39.8647C17.1855 40.6054 17.1635 40.7046 16.9511 40.9174L16.7169 41.1523H9.88598H3.05521V40.2391C3.05521 39.6448 3.09693 39.2785 3.17455 39.19C3.27556 39.0751 4.36312 39.0536 10.2397 39.0505L17.1855 39.0469V39.8647ZM48.6924 43.3535C48.6924 43.4062 48.5835 43.4492 48.4505 43.4492C48.128 43.4492 47.5467 44.032 47.5467 44.3552C47.5467 44.4886 47.5037 44.5977 47.4512 44.5977C47.388 44.5977 47.3557 49.7338 47.3557 59.8145C47.3557 69.8951 47.388 75.0312 47.4512 75.0312C47.5037 75.0312 47.5467 75.1408 47.5467 75.2748C47.5467 75.5434 47.9309 75.9883 48.1629 75.9883C48.2441 75.9883 48.3105 76.0313 48.3105 76.084C48.3105 76.1366 48.4358 76.1797 48.589 76.1797C48.7421 76.1797 48.8925 76.2336 48.9231 76.2993C48.9676 76.395 48.99 76.395 49.0344 76.2993C49.0651 76.2336 49.2155 76.1797 49.3686 76.1797C49.5218 76.1797 49.6471 76.1366 49.6471 76.084C49.6471 76.0313 49.7146 75.9883 49.7971 75.9883C49.9901 75.9883 50.22 75.7578 50.22 75.5644C50.22 75.4817 50.2629 75.4141 50.3154 75.4141C50.3787 75.4141 50.4109 70.1504 50.4109 59.8145C50.4109 49.4785 50.3787 44.2148 50.3154 44.2148C50.2629 44.2148 50.22 44.1472 50.22 44.0645C50.22 43.8711 49.9901 43.6406 49.7971 43.6406C49.7146 43.6406 49.6471 43.5976 49.6471 43.5449C49.6471 43.4923 49.5182 43.4492 49.3607 43.4492C49.2032 43.4492 49.0743 43.4062 49.0743 43.3535C49.0743 43.3009 48.9883 43.2578 48.8833 43.2578C48.7783 43.2578 48.6924 43.3009 48.6924 43.3535ZM48.3105 78.3809C48.3105 78.4335 48.243 78.4766 48.1605 78.4766C48.0779 78.4766 47.949 78.5381 47.874 78.6133C47.799 78.6885 47.7376 78.8176 47.7376 78.9004C47.7376 78.9831 47.6946 79.0508 47.6421 79.0508C47.5896 79.0508 47.5467 79.18 47.5467 79.3379C47.5467 79.4958 47.5037 79.625 47.4512 79.625C47.3967 79.625 47.3557 79.9121 47.3557 80.2949C47.3557 80.6777 47.3967 80.9648 47.4512 80.9648C47.5037 80.9648 47.5467 81.094 47.5467 81.252C47.5467 81.4099 47.5896 81.5391 47.6421 81.5391C47.6946 81.5391 47.7376 81.6252 47.7376 81.7305C47.7376 81.8502 47.8013 81.9219 47.9075 81.9219C48.0009 81.9219 48.1393 82.008 48.215 82.1133C48.3275 82.2699 48.4622 82.3047 48.9546 82.3047C49.5403 82.3047 49.5682 82.2931 49.9838 81.8765L50.4109 81.4484V80.2949V79.1414L49.9838 78.7133C49.5652 78.2937 49.5442 78.2852 48.9335 78.2852C48.5818 78.2852 48.3105 78.3268 48.3105 78.3809ZM12.6572 91.4375C12.7621 91.5425 12.7937 91.875 12.7937 92.8731C12.7937 93.6752 12.7572 94.1719 12.6982 94.1719C12.6457 94.1719 12.6027 94.2395 12.6027 94.3222C12.6027 94.405 12.5413 94.5342 12.4663 94.6093C12.3913 94.6846 12.2625 94.7461 12.1799 94.7461C12.0974 94.7461 12.0299 94.7892 12.0299 94.8418C12.0299 94.9024 11.3298 94.9375 10.1204 94.9375C8.91099 94.9375 8.21087 94.9024 8.21087 94.8418C8.21087 94.7892 8.12494 94.7461 8.01992 94.7461C7.89265 94.7461 7.82897 94.6823 7.82897 94.5547C7.82897 94.4494 7.786 94.3633 7.73349 94.3633C7.67382 94.3633 7.63802 93.7891 7.63802 92.832V91.3008H10.0794C12.0681 91.3008 12.5462 91.3261 12.6572 91.4375ZM49.2652 92.832C49.2652 93.7891 49.2294 94.3633 49.1697 94.3633C49.1172 94.3633 49.0743 94.4494 49.0743 94.5547C49.0743 94.6823 49.0106 94.7461 48.8833 94.7461C48.7783 94.7461 48.6924 94.7892 48.6924 94.8418C48.6924 94.9024 47.9922 94.9375 46.7829 94.9375C45.5735 94.9375 44.8733 94.9024 44.8733 94.8418C44.8733 94.7892 44.8059 94.7461 44.7234 94.7461C44.5304 94.7461 44.3005 94.5156 44.3005 94.3222C44.3005 94.2395 44.2575 94.1719 44.205 94.1719C44.0575 94.1719 44.0799 91.6136 44.2289 91.4439C44.326 91.3334 44.8062 91.3074 46.8067 91.3044L49.2652 91.3008V92.832Z" fill="black"/>
</svg>
