<svg width="98" height="98" viewBox="0 0 98 98" fill="none" xmlns="http://www.w3.org/2000/svg">
<g clip-path="url(#clip0_1_80)">
<path d="M89.8331 0H8.16692C3.6584 0.00523377 0.00523377 3.6584 0 8.16692V89.8331C0.00523377 94.3416 3.6584 97.9948 8.16692 98H89.8331C94.3416 97.9948 97.9948 94.3416 98 89.8331V8.16692C97.9948 3.6584 94.3416 0.00523377 89.8331 0V0ZM73.5 68.5997C72.5983 68.5997 71.8663 69.3309 71.8663 70.2334V75.1337H50.6337V58.7999H55.5332C56.4357 58.7999 57.1669 58.0686 57.1669 57.1669C57.1669 56.2645 56.4357 55.5332 55.5332 55.5332H50.6337V40.8331H71.8663V45.7334C71.8663 46.6351 72.5983 47.3663 73.5 47.3663C74.4017 47.3663 75.1337 46.6351 75.1337 45.7334V40.8331H94.7334V55.5332H89.8331C88.9314 55.5332 88.2001 56.2645 88.2001 57.1669C88.2001 58.0686 88.9314 58.7999 89.8331 58.7999H94.7334V75.1337H75.1337V70.2334C75.1337 69.3309 74.4017 68.5997 73.5 68.5997ZM27.7666 75.1337V70.1115C33.8445 69.3003 38.3829 64.1151 38.3829 57.9834C38.3829 51.8517 33.8445 46.6665 27.7666 45.8553V40.8331H47.3663V55.5332H42.4668C41.5643 55.5332 40.8331 56.2645 40.8331 57.1669C40.8331 58.0686 41.5643 58.7999 42.4668 58.7999H47.3663V75.1337H27.7666ZM3.26662 75.1337V58.7999H8.16692C9.06862 58.7999 9.79985 58.0686 9.79985 57.1669C9.79985 56.2645 9.06862 55.5332 8.16692 55.5332H3.26662V40.8331H24.5V45.8553C18.4221 46.6665 13.8837 51.8517 13.8837 57.9834C13.8837 64.1151 18.4221 69.3003 24.5 70.1115V75.1337H3.26662ZM26.1337 66.9668C21.1721 66.9668 17.1503 62.945 17.1503 57.9834C17.1503 53.0218 21.1721 49 26.1337 49C31.0945 49 35.1163 53.0218 35.1163 57.9834C35.1111 62.9427 31.0923 66.9608 26.1337 66.9668ZM50.6337 21.2334H55.5332C56.4357 21.2334 57.1669 20.5022 57.1669 19.5997C57.1669 18.698 56.4357 17.9668 55.5332 17.9668H50.6337V3.26662H71.8663V8.28879C65.7892 9.10002 61.25 14.2852 61.25 20.4169C61.25 26.5486 65.7892 31.7331 71.8663 32.545V37.5665H50.6337V21.2334ZM73.5 29.4003C68.5384 29.4003 64.5166 25.3778 64.5166 20.4169C64.5166 15.4553 68.5384 11.4335 73.5 11.4335C78.4616 11.4335 82.4834 15.4553 82.4834 20.4169C82.4774 25.3755 78.4594 29.3943 73.5 29.4003ZM94.7334 8.16692V17.9668H89.8331C88.9314 17.9668 88.2001 18.698 88.2001 19.5997C88.2001 20.5022 88.9314 21.2334 89.8331 21.2334H94.7334V37.5665H75.1337V32.545C81.2108 31.7331 85.75 26.5486 85.75 20.4169C85.75 14.2852 81.2108 9.10002 75.1337 8.28879V3.26662H89.8331C92.5382 3.26961 94.7304 5.46181 94.7334 8.16692ZM8.16692 3.26662H24.5V8.16692C24.5 9.06862 25.2312 9.79985 26.1337 9.79985C27.0354 9.79985 27.7666 9.06862 27.7666 8.16692V3.26662H47.3663V17.9668H42.4668C41.5643 17.9668 40.8331 18.698 40.8331 19.5997C40.8331 20.5022 41.5643 21.2334 42.4668 21.2334H47.3663V37.5665H27.7666V32.6669C27.7666 31.7645 27.0354 31.0332 26.1337 31.0332C25.2312 31.0332 24.5 31.7645 24.5 32.6669V37.5665H3.26662V21.2334H8.16692C9.06862 21.2334 9.79985 20.5022 9.79985 19.5997C9.79985 18.698 9.06862 17.9668 8.16692 17.9668H3.26662V8.16692C3.26961 5.46181 5.46181 3.26961 8.16692 3.26662ZM89.8331 94.7334H8.16692C5.46181 94.7304 3.26961 92.5382 3.26662 89.8331V78.4003H94.7334V89.8331C94.7304 92.5382 92.5382 94.7304 89.8331 94.7334Z" fill="black"/>
<path d="M16.3331 81.6669C13.6272 81.6669 11.4335 83.8606 11.4335 86.5664C11.4335 89.273 13.6272 91.4667 16.3331 91.4667C19.0397 91.4667 21.2334 89.273 21.2334 86.5664C21.2304 83.8613 19.0382 81.6699 16.3331 81.6669ZM16.3331 88.2001C15.4314 88.2001 14.7001 87.4689 14.7001 86.5664C14.7001 85.6647 15.4314 84.9335 16.3331 84.9335C17.2355 84.9335 17.9668 85.6647 17.9668 86.5664C17.9653 87.4681 17.2348 88.1986 16.3331 88.2001Z" fill="black"/>
<path d="M29.4003 81.6669C26.6937 81.6669 24.5 83.8606 24.5 86.5664C24.5 89.273 26.6937 91.4667 29.4003 91.4667C32.1062 91.4667 34.2999 89.273 34.2999 86.5664C34.2969 83.8613 32.1047 81.6699 29.4003 81.6669ZM29.4003 88.2001C28.4978 88.2001 27.7666 87.4689 27.7666 86.5664C27.7666 85.6647 28.4978 84.9335 29.4003 84.9335C30.302 84.9335 31.0332 85.6647 31.0332 86.5664C31.0325 87.4681 30.3013 88.1986 29.4003 88.2001Z" fill="black"/>
<path d="M42.4668 81.6669C39.7602 81.6669 37.5665 83.8606 37.5665 86.5664C37.5665 89.273 39.7602 91.4667 42.4668 91.4667C45.1726 91.4667 47.3663 89.273 47.3663 86.5664C47.3633 83.8613 45.1719 81.6699 42.4668 81.6669ZM42.4668 88.2001C41.5643 88.2001 40.8331 87.4689 40.8331 86.5664C40.8331 85.6647 41.5643 84.9335 42.4668 84.9335C43.3685 84.9335 44.0997 85.6647 44.0997 86.5664C44.099 87.4681 43.3685 88.1986 42.4668 88.2001Z" fill="black"/>
<path d="M55.5332 81.6669C52.8274 81.6669 50.6337 83.8606 50.6337 86.5664C50.6337 89.273 52.8274 91.4667 55.5332 91.4667C58.2398 91.4667 60.4335 89.273 60.4335 86.5664C60.4305 83.8613 58.2383 81.6699 55.5332 81.6669ZM55.5332 88.2001C54.6315 88.2001 53.9003 87.4689 53.9003 86.5664C53.9003 85.6647 54.6315 84.9335 55.5332 84.9335C56.4357 84.9335 57.1669 85.6647 57.1669 86.5664C57.1654 87.4681 56.4349 88.1986 55.5332 88.2001Z" fill="black"/>
<path d="M80.8497 57.9834C80.8497 53.9242 77.5591 50.6337 73.5 50.6337C69.4408 50.6337 66.1503 53.9242 66.1503 57.9834C66.1503 62.0425 69.4408 65.3331 73.5 65.3331C77.5576 65.3286 80.8452 62.041 80.8497 57.9834ZM73.5 62.0665C71.245 62.0665 69.4169 60.2384 69.4169 57.9834C69.4169 55.7284 71.245 53.9003 73.5 53.9003C75.755 53.9003 77.5831 55.7284 77.5831 57.9834C77.5808 60.2376 75.7542 62.0642 73.5 62.0665Z" fill="black"/>
<path d="M26.1337 27.7666C30.1928 27.7666 33.4834 24.476 33.4834 20.4169C33.4834 16.3569 30.1928 13.0664 26.1337 13.0664C22.0737 13.0664 18.7832 16.3569 18.7832 20.4169C18.7877 24.4738 22.076 27.7621 26.1337 27.7666ZM26.1337 16.333C28.3887 16.333 30.2167 18.1611 30.2167 20.4169C30.2167 22.6719 28.3887 24.4999 26.1337 24.4999C23.8779 24.4999 22.0498 22.6719 22.0498 20.4169C22.0528 18.1626 23.8794 16.336 26.1337 16.333Z" fill="black"/>
</g>
<defs>
<clipPath id="clip0_1_80">
<rect width="98" height="98" fill="white"/>
</clipPath>
</defs>
</svg>
