<svg width="20" height="20" viewBox="0 0 20 20" fill="none" xmlns="http://www.w3.org/2000/svg">
<path d="M4.5076 19.0909H15.4925C17.4765 19.0909 19.0909 17.4765 19.0909 15.4924V4.50754C19.0909 2.52345 17.4765 0.909058 15.4925 0.909058H4.5076C2.52351 0.909058 0.909119 2.52345 0.909119 4.50754V15.4924C0.909119 17.4765 2.52351 19.0909 4.5076 19.0909ZM2.04548 4.50754C2.04548 3.14997 3.15003 2.04542 4.5076 2.04542H15.4925C16.85 2.04542 17.9546 3.14997 17.9546 4.50754V15.4924C17.9546 16.85 16.85 17.9545 15.4925 17.9545H4.5076C3.15003 17.9545 2.04548 16.85 2.04548 15.4924V4.50754Z" fill="white" stroke="white" stroke-width="0.7"/>
<path d="M10 14.644C12.5606 14.644 14.644 12.5606 14.644 10C14.644 7.43941 12.5606 5.35608 10 5.35608C7.43941 5.35608 5.35608 7.43941 5.35608 10C5.35608 12.5606 7.43941 14.644 10 14.644ZM10 6.49244C11.9341 6.49244 13.5076 8.06593 13.5076 10C13.5076 11.9341 11.9341 13.5076 10 13.5076C8.06593 13.5076 6.49244 11.9341 6.49244 10C6.49244 8.06593 8.06593 6.49244 10 6.49244Z" fill="white" stroke="white" stroke-width="0.7"/>
<path d="M14.9999 5.4545C15.2592 5.4545 15.4546 5.25905 15.4546 4.99996C15.4546 4.72976 15.2489 4.54541 15.0001 4.54541C14.7409 4.54541 14.5455 4.74086 14.5455 4.99996C14.5455 5.26962 14.7501 5.4545 14.9999 5.4545ZM15.0464 4.95638C15.1295 5.03006 14.9399 5.1196 14.9399 5.00022C14.9399 4.92891 15.0364 4.9474 15.0464 4.95638Z" fill="white" stroke="white" stroke-width="0.7"/>
</svg>
