<svg width="98" height="98" viewBox="0 0 98 98" fill="none" xmlns="http://www.w3.org/2000/svg">
<path d="M91.4991 9.3808H6.50092C2.91627 9.3808 0 12.2971 0 15.8817V75.6495C0 79.2341 2.91627 82.1504 6.50092 82.1504H9.70296V88.6192H22.9638V82.1504H29.5258V79.2395H22.9638H9.70296H6.50092C4.5214 79.2395 2.91091 77.629 2.91091 75.6495V15.8817C2.91091 13.9022 4.5214 12.2917 6.50092 12.2917H91.4989C93.4784 12.2917 95.0889 13.9022 95.0889 15.8817V75.6495C95.0889 77.629 93.4784 79.2395 91.4989 79.2395H88.2969H75.036H33.4069V82.1504H75.0362V88.6192H88.297V82.1504H91.4991C95.0837 82.1504 98 79.2341 98 75.6495V15.8817C98 12.2971 95.0837 9.3808 91.4991 9.3808ZM12.6139 82.1506H20.0529V85.7084H12.6139V82.1506ZM85.3861 85.7086H77.9471V82.1508H85.3861V85.7086Z" fill="black"/>
<path d="M72.5781 29.6587V19.0837H9.70287V72.4476H72.5781V33.5399H69.6672V69.5367H12.6138V21.9946H69.6672V29.6587H72.5781Z" fill="black"/>
<path d="M83.8337 29.7566C86.7762 29.7566 89.1701 27.3626 89.1701 24.4201C89.1701 21.4777 86.7762 19.0837 83.8337 19.0837C80.8912 19.0837 78.4973 21.4777 78.4973 24.4201C78.4973 27.3626 80.8912 29.7566 83.8337 29.7566ZM83.8337 21.9946C85.1711 21.9946 86.2592 23.0828 86.2592 24.4201C86.2592 25.7577 85.1711 26.8456 83.8337 26.8456C82.4962 26.8456 81.4082 25.7575 81.4082 24.4201C81.4082 23.0826 82.4964 21.9946 83.8337 21.9946Z" fill="black"/>
<path d="M83.8337 43.3407C86.7762 43.3407 89.1701 40.9467 89.1701 38.0043C89.1701 35.0618 86.7762 32.6678 83.8337 32.6678C80.8912 32.6678 78.4973 35.0618 78.4973 38.0043C78.4973 40.9467 80.8912 43.3407 83.8337 43.3407ZM83.8337 35.5789C85.1711 35.5789 86.2592 36.6671 86.2592 38.0044C86.2592 39.3418 85.1711 40.4299 83.8337 40.4299C82.4962 40.4299 81.4082 39.3418 81.4082 38.0044C81.4082 36.6671 82.4964 35.5789 83.8337 35.5789Z" fill="black"/>
<path d="M18.6827 62.3314L54.9512 26.0526L52.8926 23.9946L16.6241 60.2734L18.6827 62.3314Z" fill="black"/>
<path d="M42.5501 48.7931L51.3499 39.9908L49.2913 37.9328L40.4915 46.7351L42.5501 48.7931Z" fill="black"/>
<path d="M40.3949 50.9448L38.3363 48.8868L21.7518 65.476L23.8104 67.534L40.3949 50.9448Z" fill="black"/>
<path d="M65.6513 44.0056L63.5927 41.9476L40.0727 65.4743L42.1313 67.5323L65.6513 44.0056Z" fill="black"/>
<path d="M32.6616 25.9089L16.6258 41.9492L18.6844 44.0072L34.7202 27.9669L32.6616 25.9089Z" fill="black"/>
<path d="M79.6278 47.4146H76.1352V50.3254H79.6278V47.4146Z" fill="black"/>
<path d="M85.5796 47.4146H82.087V50.3254H85.5796V47.4146Z" fill="black"/>
<path d="M91.5314 47.4146H88.0388V50.3254H91.5314V47.4146Z" fill="black"/>
<path d="M79.6278 52.6543H76.1352V55.5652H79.6278V52.6543Z" fill="black"/>
<path d="M85.5796 52.6543H82.087V55.5652H85.5796V52.6543Z" fill="black"/>
<path d="M91.5314 52.6543H88.0388V55.5652H91.5314V52.6543Z" fill="black"/>
<path d="M79.6278 57.8939H76.1352V60.8048H79.6278V57.8939Z" fill="black"/>
<path d="M85.5796 57.8939H82.087V60.8048H85.5796V57.8939Z" fill="black"/>
<path d="M91.5314 57.8939H88.0388V60.8048H91.5314V57.8939Z" fill="black"/>
<path d="M91.53 63.7157H76.1352V66.6266H91.53V63.7157Z" fill="black"/>
<path d="M91.53 69.5373H76.1352V72.4482H91.53V69.5373Z" fill="black"/>
</svg>
