<svg width="98" height="98" viewBox="0 0 98 98" fill="none" xmlns="http://www.w3.org/2000/svg">
<path d="M0 0V98H98V0H0ZM95.0453 95.0453H2.95474V2.95474H95.0453V95.0453Z" fill="black"/>
<path d="M83.4459 7.0824H14.5542C10.4342 7.0824 7.08224 10.4343 7.08224 14.5545V83.4458C7.08224 87.5659 10.4342 90.9178 14.5542 90.9178H83.4457C87.5657 90.9178 90.9174 87.5659 90.9174 83.4458V14.5543C90.9176 10.4343 87.5657 7.0824 83.4459 7.0824ZM87.9629 83.4458C87.9629 85.9362 85.9365 87.9628 83.4459 87.9628H14.5542C12.0634 87.9628 10.0372 85.9364 10.0372 83.4458V29.8171H87.9629V83.4458ZM87.9629 26.8621H10.0372V14.5543C10.0372 12.0634 12.0636 10.0371 14.5542 10.0371H83.4457C85.9364 10.0371 87.9627 12.0636 87.9627 14.5543V26.8621H87.9629Z" fill="black"/>
<path d="M35.5167 12.9072V24.1236H62.387V12.9072H35.5167ZM59.4323 21.1685H38.4714V15.8618H59.4321V21.1685H59.4323Z" fill="black"/>
<path d="M24.0982 12.9071C21.0056 12.9071 18.49 15.4228 18.49 18.5153C18.49 21.6079 21.0056 24.1235 24.0982 24.1235C27.1907 24.1235 29.7066 21.6079 29.7066 18.5153C29.7066 15.4228 27.1903 12.9071 24.0982 12.9071ZM24.0982 21.1688C22.6351 21.1688 21.4447 19.9784 21.4447 18.5153C21.4447 17.0522 22.6349 15.8618 24.0982 15.8618C25.5615 15.8618 26.7518 17.0522 26.7518 18.5153C26.7518 19.9784 25.5611 21.1688 24.0982 21.1688Z" fill="black"/>
<path d="M73.9017 12.9071C70.8091 12.9071 68.2933 15.4228 68.2933 18.5153C68.2933 21.6079 70.809 24.1235 73.9017 24.1235C76.9942 24.1235 79.5101 21.6079 79.5101 18.5153C79.5101 15.4228 76.9942 12.9071 73.9017 12.9071ZM73.9017 21.1688C72.4384 21.1688 71.248 19.9784 71.248 18.5153C71.248 17.0522 72.4384 15.8618 73.9017 15.8618C75.3648 15.8618 76.5554 17.0522 76.5554 18.5153C76.5554 19.9784 75.365 21.1688 73.9017 21.1688Z" fill="black"/>
<path d="M14.1448 38.5876V75.842H83.8551V38.5876H14.1448ZM80.9004 72.8873H17.0995V41.5426H80.9004V72.8873Z" fill="black"/>
<path d="M77.4248 32.7705H57.2142V35.7252H77.4248V32.7705Z" fill="black"/>
<path d="M83.4518 32.7705H80.6043V35.7252H83.4518V32.7705Z" fill="black"/>
<path d="M34.4526 82.0521H14.242V85.0069H34.4526V82.0521Z" fill="black"/>
<path d="M40.4794 82.0521H37.6321V85.0069H40.4794V82.0521Z" fill="black"/>
<path d="M38.9763 48.521L24.1227 63.3745L26.212 65.4638L41.0656 50.6103L38.9763 48.521Z" fill="black"/>
<path d="M53.8292 48.5189L38.9757 63.3724L41.065 65.4617L55.9185 50.6082L53.8292 48.5189Z" fill="black"/>
<path d="M68.6831 48.5195L53.8296 63.373L55.9189 65.4623L70.7724 50.6088L68.6831 48.5195Z" fill="black"/>
</svg>
