<svg width="22" height="22" viewBox="0 0 22 22" fill="none" xmlns="http://www.w3.org/2000/svg">
<path d="M7.29232 1.66663H4.33335C2.86059 1.66663 1.66669 2.86053 1.66669 4.33329V6.99996C1.66669 14.3638 7.63622 20.3333 15 20.3333H17.6667C19.1394 20.3333 20.3334 19.1394 20.3334 17.6666V15.824C20.3334 15.319 20.048 14.8573 19.5963 14.6314L16.3751 13.0208C15.6493 12.6579 14.7705 13.022 14.5139 13.7917L14.1168 14.9828C13.8597 15.7543 13.0683 16.2136 12.2708 16.0541C9.07907 15.4158 6.58421 12.9209 5.94586 9.72918C5.78637 8.93172 6.24565 8.1403 7.01717 7.88313L8.49534 7.39041C9.1563 7.17009 9.5362 6.47803 9.36723 5.80212L8.58584 2.67658C8.43745 2.08302 7.90414 1.66663 7.29232 1.66663Z" stroke="white" stroke-width="2"/>
</svg>
