<svg width="22" height="22" viewBox="0 0 22 22" fill="none" xmlns="http://www.w3.org/2000/svg">
<path d="M7.2923 1.66675H4.33334C2.86058 1.66675 1.66667 2.86066 1.66667 4.33341V7.00008C1.66667 14.3639 7.63621 20.3334 15 20.3334H17.6667C19.1394 20.3334 20.3333 19.1395 20.3333 17.6667V15.8241C20.3333 15.3191 20.048 14.8574 19.5963 14.6316L16.375 13.0209C15.6493 12.6581 14.7704 13.0221 14.5139 13.7919L14.1168 14.9829C13.8597 15.7544 13.0682 16.2137 12.2708 16.0542C9.07906 15.4159 6.58419 12.921 5.94585 9.7293C5.78636 8.93185 6.24564 8.14043 7.01715 7.88325L8.49532 7.39053C9.15629 7.17021 9.53619 6.47815 9.36721 5.80224L8.58583 2.6767C8.43744 2.08314 7.90413 1.66675 7.2923 1.66675Z" stroke="#333D4D" stroke-width="2"/>
</svg>
