<svg width="20" height="22" viewBox="0 0 20 22" fill="none" xmlns="http://www.w3.org/2000/svg">
<path fill-rule="evenodd" clip-rule="evenodd" d="M9.74995 0.769287C6.52336 0.769287 3.94995 3.44286 3.94995 6.68915C3.94995 9.23025 5.52674 11.4204 7.75934 12.2521C3.3153 13.2694 0 17.2475 0 22.0001H2C2 17.5818 5.58172 14.0001 10 14.0001C14.4183 14.0001 18 17.5818 18 22.0001H20C20 17.1325 16.5222 13.0772 11.9159 12.1834C14.0553 11.3046 15.5499 9.1632 15.5499 6.68915C15.5499 3.44286 12.9765 0.769287 9.74995 0.769287ZM5.94995 6.68915C5.94995 4.50064 7.67414 2.76929 9.74995 2.76929C11.8258 2.76929 13.5499 4.50064 13.5499 6.68915C13.5499 8.87767 11.8258 10.609 9.74995 10.609C7.67414 10.609 5.94995 8.87767 5.94995 6.68915Z" fill="#333D4D"/>
</svg>
