<svg width="75" height="101" viewBox="0 0 75 101" fill="none" xmlns="http://www.w3.org/2000/svg">
<path fill-rule="evenodd" clip-rule="evenodd" d="M7.45693 3.0957C7.45693 3.14891 7.20196 3.19141 6.88332 3.19141C6.56468 3.19141 6.30971 3.2339 6.30971 3.28711C6.30971 3.33975 6.18065 3.38281 6.02291 3.38281C5.86516 3.38281 5.7361 3.42588 5.7361 3.47852C5.7361 3.53115 5.60704 3.57422 5.4493 3.57422C5.29155 3.57422 5.16249 3.61729 5.16249 3.66992C5.16249 3.72256 5.07645 3.76562 4.97129 3.76562C4.86613 3.76562 4.78008 3.80869 4.78008 3.86133C4.78008 3.91396 4.69404 3.95703 4.58888 3.95703C4.48372 3.95703 4.39768 4.0001 4.39768 4.05273C4.39768 4.10537 4.31164 4.14844 4.20647 4.14844C4.10131 4.14844 4.01527 4.1915 4.01527 4.24414C4.01527 4.29678 3.94739 4.33984 3.86441 4.33984C3.78133 4.33984 3.54816 4.51211 3.34606 4.72266C3.14396 4.9332 2.93086 5.10547 2.87235 5.10547C2.73411 5.10547 2.10324 5.73701 2.10324 5.8754C2.10324 5.93397 1.93115 6.14729 1.72083 6.34961C1.51051 6.55193 1.33842 6.78535 1.33842 6.86851C1.33842 6.95158 1.2954 7.01953 1.24282 7.01953C1.19024 7.01953 1.14722 7.10566 1.14722 7.21094C1.14722 7.31621 1.1042 7.40234 1.05162 7.40234C0.999038 7.40234 0.956017 7.479 0.956017 7.5726C0.956017 7.66629 0.869975 7.80497 0.764814 7.88086C0.652577 7.96192 0.57361 8.12864 0.57361 8.28482C0.57361 8.43106 0.530589 8.55078 0.478008 8.55078C0.425428 8.55078 0.382407 8.72305 0.382407 8.93359C0.382407 9.14414 0.339386 9.31641 0.286805 9.31641C0.234224 9.31641 0.191203 9.53174 0.191203 9.79492C0.191203 10.0581 0.148183 10.2734 0.0956017 10.2734C0.0320266 10.2734 0 23.6719 0 50.2773C0 76.8828 0.0320266 90.2812 0.0956017 90.2812C0.148183 90.2812 0.191203 90.4104 0.191203 90.5684C0.191203 90.7263 0.234224 90.8555 0.286805 90.8555C0.339386 90.8555 0.382407 90.9847 0.382407 91.1426C0.382407 91.3005 0.425428 91.4297 0.478008 91.4297C0.530589 91.4297 0.57361 91.5063 0.57361 91.5999C0.57361 91.6936 0.659652 91.8323 0.764814 91.9082C0.869975 91.9841 0.956017 92.1024 0.956017 92.1711C0.956017 92.3337 1.77379 93.1523 1.93622 93.1523C2.00486 93.1523 2.12303 93.2385 2.19884 93.3438C2.27465 93.449 2.41318 93.5352 2.50677 93.5352C2.60027 93.5352 2.67685 93.5782 2.67685 93.6309C2.67685 93.6835 2.76289 93.7266 2.86805 93.7266C2.97321 93.7266 3.05925 93.7696 3.05925 93.8223C3.05925 93.8749 3.1453 93.918 3.25046 93.918C3.4342 93.918 3.44166 93.9818 3.44166 95.5449C3.44166 96.5658 3.47732 97.1719 3.53726 97.1719C3.58984 97.1719 3.63286 97.3441 3.63286 97.5547C3.63286 97.7652 3.67589 97.9375 3.72847 97.9375C3.78105 97.9375 3.82407 98.0236 3.82407 98.1289C3.82407 98.2342 3.86709 98.3203 3.91967 98.3203C3.97225 98.3203 4.01527 98.3883 4.01527 98.4713C4.01527 98.5545 4.18735 98.7879 4.39768 98.9902C4.608 99.1926 4.78008 99.426 4.78008 99.5091C4.78008 99.5922 4.84882 99.6602 4.93295 99.6602C5.01699 99.6602 5.20637 99.7894 5.35369 99.9473C5.50102 100.105 5.6904 100.234 5.77444 100.234C5.85857 100.234 5.9273 100.277 5.9273 100.33C5.9273 100.383 6.01335 100.426 6.11851 100.426C6.22367 100.426 6.30971 100.469 6.30971 100.521C6.30971 100.574 6.39575 100.617 6.50092 100.617C6.60608 100.617 6.69212 100.66 6.69212 100.713C6.69212 100.766 6.8642 100.809 7.07453 100.809C7.28485 100.809 7.45693 100.852 7.45693 100.904C7.45693 100.968 17.3995 101 37.0935 101C56.7874 101 66.73 100.968 66.73 100.904C66.73 100.852 66.9021 100.809 67.1124 100.809C67.3227 100.809 67.4948 100.766 67.4948 100.713C67.4948 100.66 67.5808 100.617 67.686 100.617C67.7912 100.617 67.8772 100.574 67.8772 100.521C67.8772 100.469 67.9632 100.426 68.0684 100.426C68.1736 100.426 68.2596 100.383 68.2596 100.33C68.2596 100.277 68.3283 100.234 68.4125 100.234C68.4965 100.234 68.6859 100.105 68.8332 99.9473C68.9805 99.7894 69.1699 99.6602 69.254 99.6602C69.3381 99.6602 69.4068 99.5922 69.4068 99.5091C69.4068 99.426 69.5789 99.1926 69.7892 98.9902C69.9996 98.7879 70.1716 98.5545 70.1716 98.4713C70.1716 98.3883 70.2147 98.3203 70.2672 98.3203C70.3198 98.3203 70.3628 98.2342 70.3628 98.1289C70.3628 98.0236 70.4059 97.9375 70.4585 97.9375C70.511 97.9375 70.554 97.7652 70.554 97.5547C70.554 97.3441 70.5971 97.1719 70.6497 97.1719C70.7096 97.1719 70.7453 96.5658 70.7453 95.5449C70.7453 93.9818 70.7527 93.918 70.9365 93.918C71.0416 93.918 71.1277 93.8749 71.1277 93.8223C71.1277 93.7696 71.2137 93.7266 71.3189 93.7266C71.424 93.7266 71.5101 93.6835 71.5101 93.6309C71.5101 93.5782 71.5866 93.5352 71.6801 93.5352C71.7737 93.5352 71.9123 93.449 71.9881 93.3438C72.0639 93.2385 72.1821 93.1523 72.2507 93.1523C72.4131 93.1523 73.2309 92.3337 73.2309 92.1711C73.2309 92.1024 73.3169 91.9841 73.4221 91.9082C73.5273 91.8323 73.6133 91.6936 73.6133 91.5999C73.6133 91.5063 73.6563 91.4297 73.7089 91.4297C73.7615 91.4297 73.8045 91.3005 73.8045 91.1426C73.8045 90.9847 73.8475 90.8555 73.9001 90.8555C73.9527 90.8555 73.9957 90.7263 73.9957 90.5684C73.9957 90.4104 74.0387 90.2812 74.0913 90.2812C74.1549 90.2812 74.1869 76.8828 74.1869 50.2773C74.1869 23.6719 74.1549 10.2734 74.0913 10.2734C74.0387 10.2734 73.9957 10.0581 73.9957 9.79492C73.9957 9.53174 73.9527 9.31641 73.9001 9.31641C73.8475 9.31641 73.8045 9.14414 73.8045 8.93359C73.8045 8.72305 73.7615 8.55078 73.7089 8.55078C73.6563 8.55078 73.6133 8.43106 73.6133 8.28482C73.6133 8.12864 73.5343 7.96192 73.4221 7.88086C73.3169 7.80497 73.2309 7.66629 73.2309 7.5726C73.2309 7.479 73.1879 7.40234 73.1353 7.40234C73.0827 7.40234 73.0397 7.31621 73.0397 7.21094C73.0397 7.10566 72.9967 7.01953 72.9441 7.01953C72.8915 7.01953 72.8485 6.95158 72.8485 6.86851C72.8485 6.78535 72.6764 6.55193 72.4661 6.34961C72.2558 6.14729 72.0837 5.93397 72.0837 5.8754C72.0837 5.73701 71.4528 5.10547 71.3146 5.10547C71.2561 5.10547 71.043 4.9332 70.8409 4.72266C70.6387 4.51211 70.4056 4.33984 70.3225 4.33984C70.2395 4.33984 70.1716 4.29678 70.1716 4.24414C70.1716 4.1915 70.0856 4.14844 69.9804 4.14844C69.8753 4.14844 69.7892 4.10537 69.7892 4.05273C69.7892 4.0001 69.7032 3.95703 69.598 3.95703C69.4929 3.95703 69.4068 3.91396 69.4068 3.86133C69.4068 3.80869 69.3208 3.76562 69.2156 3.76562C69.1105 3.76562 69.0244 3.72256 69.0244 3.66992C69.0244 3.61729 68.8954 3.57422 68.7376 3.57422C68.5799 3.57422 68.4508 3.53115 68.4508 3.47852C68.4508 3.42588 68.3218 3.38281 68.164 3.38281C68.0063 3.38281 67.8772 3.33975 67.8772 3.28711C67.8772 3.2339 67.6222 3.19141 67.3036 3.19141C66.9849 3.19141 66.73 3.14891 66.73 3.0957C66.73 3.03206 56.7874 3 37.0935 3C17.3995 3 7.45693 3.03206 7.45693 3.0957ZM67.1124 6.34961C67.1124 6.40225 67.2414 6.44531 67.3992 6.44531C67.5569 6.44531 67.686 6.48838 67.686 6.54102C67.686 6.59365 67.772 6.63672 67.8772 6.63672C67.9824 6.63672 68.0684 6.67979 68.0684 6.73242C68.0684 6.78506 68.1544 6.82812 68.2596 6.82812C68.3648 6.82812 68.4508 6.87119 68.4508 6.92383C68.4508 6.97646 68.516 7.01953 68.5957 7.01953C68.7847 7.01953 70.1716 8.40799 70.1716 8.5971C70.1716 8.67692 70.2147 8.74219 70.2672 8.74219C70.3198 8.74219 70.3628 8.82832 70.3628 8.93359C70.3628 9.03887 70.4059 9.125 70.4585 9.125C70.511 9.125 70.554 9.21113 70.554 9.31641C70.554 9.42168 70.5971 9.50781 70.6497 9.50781C70.7022 9.50781 70.7453 9.63701 70.7453 9.79492C70.7453 9.95283 70.7883 10.082 70.8409 10.082C70.9037 10.082 70.9365 12.347 70.9365 16.6855V23.2891H3.25046V16.6855C3.25046 12.347 3.28325 10.082 3.34606 10.082C3.39864 10.082 3.44166 9.95283 3.44166 9.79492C3.44166 9.63701 3.48468 9.50781 3.53726 9.50781C3.58984 9.50781 3.63286 9.42168 3.63286 9.31641C3.63286 9.21113 3.67589 9.125 3.72847 9.125C3.78105 9.125 3.82407 9.03887 3.82407 8.93359C3.82407 8.82832 3.86709 8.74219 3.91967 8.74219C3.97225 8.74219 4.01527 8.67692 4.01527 8.5971C4.01527 8.40799 5.40226 7.01953 5.59117 7.01953C5.6709 7.01953 5.7361 6.97646 5.7361 6.92383C5.7361 6.87119 5.82214 6.82812 5.9273 6.82812C6.03247 6.82812 6.11851 6.78506 6.11851 6.73242C6.11851 6.67979 6.20455 6.63672 6.30971 6.63672C6.41487 6.63672 6.50092 6.59365 6.50092 6.54102C6.50092 6.48838 6.62998 6.44531 6.78772 6.44531C6.94546 6.44531 7.07453 6.40225 7.07453 6.34961C7.07453 6.28597 17.1445 6.25391 37.0935 6.25391C57.0424 6.25391 67.1124 6.28597 67.1124 6.34961ZM16.6347 9.79492C16.6347 9.84813 16.3797 9.89062 16.0611 9.89062C15.7424 9.89062 15.4875 9.93312 15.4875 9.98633C15.4875 10.039 15.3584 10.082 15.2007 10.082C15.0429 10.082 14.9139 10.1251 14.9139 10.1777C14.9139 10.2304 14.8278 10.2734 14.7227 10.2734C14.6175 10.2734 14.5315 10.3165 14.5315 10.3691C14.5315 10.4218 14.4549 10.4648 14.3614 10.4648C14.2678 10.4648 14.1293 10.551 14.0534 10.6562C13.9776 10.7615 13.8595 10.8477 13.7908 10.8477C13.6284 10.8477 12.8106 11.6663 12.8106 11.8289C12.8106 11.8976 12.7246 12.0159 12.6194 12.0918C12.5143 12.1677 12.4282 12.3064 12.4282 12.4001C12.4282 12.4937 12.3852 12.5703 12.3326 12.5703C12.28 12.5703 12.237 12.6995 12.237 12.8574C12.237 13.0153 12.194 13.1445 12.1414 13.1445C12.0888 13.1445 12.0458 13.2737 12.0458 13.4316C12.0458 13.5896 12.0028 13.7188 11.9502 13.7188C11.8923 13.7188 11.8546 14.1334 11.8546 14.7715C11.8546 15.4095 11.8923 15.8242 11.9502 15.8242C12.0028 15.8242 12.0458 15.9534 12.0458 16.1113C12.0458 16.2692 12.0888 16.3984 12.1414 16.3984C12.194 16.3984 12.237 16.5182 12.237 16.6644C12.237 16.8206 12.316 16.9873 12.4282 17.0684C12.5334 17.1443 12.6194 17.2735 12.6194 17.3555C12.6194 17.4375 12.7055 17.5667 12.8106 17.6426C12.9158 17.7185 13.0018 17.8376 13.0018 17.9073C13.0018 18.0627 13.4298 18.5039 13.5805 18.5039C13.6407 18.5039 13.8105 18.6331 13.9578 18.791C14.1052 18.9489 14.2946 19.0781 14.3786 19.0781C14.4627 19.0781 14.5315 19.1212 14.5315 19.1738C14.5315 19.2265 14.6175 19.2695 14.7227 19.2695C14.8278 19.2695 14.9139 19.3126 14.9139 19.3652C14.9139 19.4179 15.0859 19.4609 15.2963 19.4609C15.5066 19.4609 15.6787 19.504 15.6787 19.5566C15.6787 19.6151 16.1248 19.6523 16.8259 19.6523C17.5269 19.6523 17.9731 19.6151 17.9731 19.5566C17.9731 19.504 18.1022 19.4609 18.2599 19.4609C18.4177 19.4609 18.5467 19.4179 18.5467 19.3652C18.5467 19.3126 18.6328 19.2695 18.7379 19.2695C18.8431 19.2695 18.9291 19.2265 18.9291 19.1738C18.9291 19.1212 19.0152 19.0781 19.1203 19.0781C19.2255 19.0781 19.3115 19.0351 19.3115 18.9824C19.3115 18.9298 19.3767 18.8867 19.4565 18.8867C19.6454 18.8867 21.0324 17.4983 21.0324 17.3091C21.0324 17.2293 21.0754 17.1641 21.128 17.1641C21.1806 17.1641 21.2236 17.0779 21.2236 16.9727C21.2236 16.8674 21.2666 16.7812 21.3192 16.7812C21.3718 16.7812 21.4148 16.6521 21.4148 16.4941C21.4148 16.3362 21.4578 16.207 21.5104 16.207C21.563 16.207 21.606 16.0348 21.606 15.8242C21.606 15.6137 21.649 15.4414 21.7016 15.4414C21.7562 15.4414 21.7972 15.1543 21.7972 14.7715C21.7972 14.3887 21.7562 14.1016 21.7016 14.1016C21.649 14.1016 21.606 13.9293 21.606 13.7188C21.606 13.5082 21.563 13.3359 21.5104 13.3359C21.4578 13.3359 21.4148 13.2067 21.4148 13.0488C21.4148 12.8909 21.3718 12.7617 21.3192 12.7617C21.2666 12.7617 21.2236 12.6756 21.2236 12.5703C21.2236 12.465 21.1806 12.3789 21.128 12.3789C21.0754 12.3789 21.0324 12.3101 21.0324 12.2259C21.0324 12.1418 20.9033 11.9522 20.7456 11.8047C20.5878 11.6572 20.4588 11.4861 20.4588 11.4245C20.4588 11.2799 20.2181 11.0391 20.0738 11.0391C20.0122 11.0391 19.8413 10.9099 19.6939 10.752C19.5466 10.594 19.3572 10.4648 19.2732 10.4648C19.1891 10.4648 19.1203 10.4218 19.1203 10.3691C19.1203 10.3165 19.0343 10.2734 18.9291 10.2734C18.824 10.2734 18.7379 10.2304 18.7379 10.1777C18.7379 10.1251 18.6089 10.082 18.4511 10.082C18.2934 10.082 18.1643 10.039 18.1643 9.98633C18.1643 9.93312 17.9094 9.89062 17.5907 9.89062C17.2721 9.89062 17.0171 9.84813 17.0171 9.79492C17.0171 9.74228 16.9311 9.69922 16.8259 9.69922C16.7207 9.69922 16.6347 9.74228 16.6347 9.79492ZM30.0189 9.79492C30.0189 9.84813 29.764 9.89062 29.4453 9.89062C29.1267 9.89062 28.8717 9.93312 28.8717 9.98633C28.8717 10.039 28.7521 10.082 28.606 10.082C28.45 10.082 28.2835 10.1611 28.2025 10.2734C28.1267 10.3787 27.9882 10.4648 27.8946 10.4648C27.8011 10.4648 27.7245 10.5079 27.7245 10.5605C27.7245 10.6132 27.6592 10.6562 27.5793 10.6562C27.3903 10.6562 26.1949 11.8529 26.1949 12.0421C26.1949 12.1221 26.1518 12.1875 26.0993 12.1875C26.0467 12.1875 26.0037 12.2736 26.0037 12.3789C26.0037 12.4842 25.9606 12.5703 25.9081 12.5703C25.8555 12.5703 25.8125 12.6564 25.8125 12.7617C25.8125 12.867 25.7694 12.9531 25.7169 12.9531C25.6643 12.9531 25.6213 13.0823 25.6213 13.2402C25.6213 13.3981 25.5782 13.5273 25.5257 13.5273C25.4669 13.5273 25.43 14.0059 25.43 14.7715C25.43 15.5371 25.4669 16.0156 25.5257 16.0156C25.5782 16.0156 25.6213 16.1448 25.6213 16.3027C25.6213 16.4606 25.6643 16.5898 25.7169 16.5898C25.7694 16.5898 25.8125 16.676 25.8125 16.7812C25.8125 16.8865 25.8555 16.9727 25.9081 16.9727C25.9606 16.9727 26.0037 17.0493 26.0037 17.1429C26.0037 17.2366 26.0897 17.3753 26.1949 17.4512C26.3 17.5271 26.3861 17.6454 26.3861 17.7141C26.3861 17.8767 27.2038 18.6953 27.3663 18.6953C27.4349 18.6953 27.5531 18.7814 27.6289 18.8867C27.7047 18.992 27.8432 19.0781 27.9368 19.0781C28.0303 19.0781 28.1069 19.1212 28.1069 19.1738C28.1069 19.2265 28.1929 19.2695 28.2981 19.2695C28.4033 19.2695 28.4893 19.3126 28.4893 19.3652C28.4893 19.4179 28.6184 19.4609 28.7761 19.4609C28.9339 19.4609 29.0629 19.504 29.0629 19.5566C29.0629 19.6155 29.5409 19.6523 30.3057 19.6523C31.0706 19.6523 31.5486 19.6155 31.5486 19.5566C31.5486 19.504 31.6776 19.4609 31.8354 19.4609C31.9931 19.4609 32.1222 19.4179 32.1222 19.3652C32.1222 19.3126 32.2082 19.2695 32.3134 19.2695C32.4185 19.2695 32.5046 19.2265 32.5046 19.1738C32.5046 19.1212 32.5906 19.0781 32.6958 19.0781C32.8009 19.0781 32.887 19.0351 32.887 18.9824C32.887 18.9298 32.9523 18.8867 33.0322 18.8867C33.2212 18.8867 34.4166 17.69 34.4166 17.5008C34.4166 17.4208 34.4596 17.3555 34.5122 17.3555C34.5648 17.3555 34.6078 17.2788 34.6078 17.1852C34.6078 17.0915 34.6939 16.9528 34.799 16.877C34.9322 16.7809 34.9902 16.6292 34.9902 16.3773C34.9902 16.1784 35.0332 16.0156 35.0858 16.0156C35.139 16.0156 35.1814 15.7604 35.1814 15.4414C35.1814 15.1224 35.2239 14.8672 35.277 14.8672C35.3296 14.8672 35.3726 14.7811 35.3726 14.6758C35.3726 14.5705 35.3296 14.4844 35.277 14.4844C35.2239 14.4844 35.1814 14.2291 35.1814 13.9102C35.1814 13.5912 35.139 13.3359 35.0858 13.3359C35.0332 13.3359 34.9902 13.2067 34.9902 13.0488C34.9902 12.8909 34.9472 12.7617 34.8946 12.7617C34.842 12.7617 34.799 12.6756 34.799 12.5703C34.799 12.465 34.756 12.3789 34.7034 12.3789C34.6508 12.3789 34.6078 12.3136 34.6078 12.2338C34.6078 12.0573 33.2269 10.6562 33.053 10.6562C32.9849 10.6562 32.8672 10.5701 32.7914 10.4648C32.7156 10.3596 32.577 10.2734 32.4834 10.2734C32.3899 10.2734 32.3134 10.2304 32.3134 10.1777C32.3134 10.1251 32.1843 10.082 32.0266 10.082C31.8688 10.082 31.7398 10.039 31.7398 9.98633C31.7398 9.93312 31.4848 9.89062 31.1662 9.89062C30.8475 9.89062 30.5925 9.84813 30.5925 9.79492C30.5925 9.74228 30.4635 9.69922 30.3057 9.69922C30.148 9.69922 30.0189 9.74228 30.0189 9.79492ZM43.5944 9.79492C43.5944 9.84813 43.3394 9.89062 43.0208 9.89062C42.7021 9.89062 42.4472 9.93312 42.4472 9.98633C42.4472 10.039 42.3181 10.082 42.1603 10.082C42.0026 10.082 41.8735 10.1251 41.8735 10.1777C41.8735 10.2304 41.797 10.2734 41.7035 10.2734C41.6099 10.2734 41.4713 10.3596 41.3955 10.4648C41.3197 10.5701 41.202 10.6562 41.1339 10.6562C40.96 10.6562 39.5791 12.0573 39.5791 12.2338C39.5791 12.3136 39.5361 12.3789 39.4835 12.3789C39.4309 12.3789 39.3879 12.465 39.3879 12.5703C39.3879 12.6756 39.3449 12.7617 39.2923 12.7617C39.2397 12.7617 39.1967 12.8909 39.1967 13.0488C39.1967 13.2067 39.1537 13.3359 39.1011 13.3359C39.0479 13.3359 39.0055 13.5912 39.0055 13.9102C39.0055 14.2291 38.963 14.4844 38.9099 14.4844C38.8573 14.4844 38.8143 14.6136 38.8143 14.7715C38.8143 14.9294 38.8573 15.0586 38.9099 15.0586C38.963 15.0586 39.0055 15.3138 39.0055 15.6328C39.0055 15.9518 39.0479 16.207 39.1011 16.207C39.1537 16.207 39.1967 16.3268 39.1967 16.473C39.1967 16.6292 39.2757 16.7959 39.3879 16.877C39.4931 16.9528 39.5791 17.0915 39.5791 17.1852C39.5791 17.2788 39.6221 17.3555 39.6747 17.3555C39.7273 17.3555 39.7703 17.4208 39.7703 17.5008C39.7703 17.69 40.9657 18.8867 41.1547 18.8867C41.2346 18.8867 41.2999 18.9298 41.2999 18.9824C41.2999 19.0351 41.386 19.0781 41.4911 19.0781C41.5963 19.0781 41.6823 19.1212 41.6823 19.1738C41.6823 19.2265 41.7684 19.2695 41.8735 19.2695C41.9787 19.2695 42.0647 19.3126 42.0647 19.3652C42.0647 19.4179 42.1938 19.4609 42.3516 19.4609C42.5093 19.4609 42.6384 19.504 42.6384 19.5566C42.6384 19.6155 43.1164 19.6523 43.8812 19.6523C44.646 19.6523 45.124 19.6155 45.124 19.5566C45.124 19.504 45.2531 19.4609 45.4108 19.4609C45.5685 19.4609 45.6976 19.4179 45.6976 19.3652C45.6976 19.3126 45.7836 19.2695 45.8888 19.2695C45.994 19.2695 46.08 19.2265 46.08 19.1738C46.08 19.1212 46.1566 19.0781 46.2501 19.0781C46.3437 19.0781 46.4822 18.992 46.558 18.8867C46.6338 18.7814 46.752 18.6953 46.8206 18.6953C46.9831 18.6953 47.8008 17.8767 47.8008 17.7141C47.8008 17.6454 47.8869 17.5271 47.9921 17.4512C48.0972 17.3753 48.1833 17.2366 48.1833 17.1429C48.1833 17.0493 48.2263 16.9727 48.2789 16.9727C48.3314 16.9727 48.3745 16.8865 48.3745 16.7812C48.3745 16.676 48.4175 16.5898 48.4701 16.5898C48.5226 16.5898 48.5657 16.4606 48.5657 16.3027C48.5657 16.1448 48.6087 16.0156 48.6613 16.0156C48.7201 16.0156 48.7569 15.5371 48.7569 14.7715C48.7569 14.0059 48.7201 13.5273 48.6613 13.5273C48.6087 13.5273 48.5657 13.3981 48.5657 13.2402C48.5657 13.0823 48.5226 12.9531 48.4701 12.9531C48.4175 12.9531 48.3745 12.867 48.3745 12.7617C48.3745 12.6564 48.3314 12.5703 48.2789 12.5703C48.2263 12.5703 48.1833 12.4842 48.1833 12.3789C48.1833 12.2736 48.1402 12.1875 48.0877 12.1875C48.0351 12.1875 47.9921 12.1221 47.9921 12.0421C47.9921 11.8529 46.7966 10.6562 46.6076 10.6562C46.5277 10.6562 46.4624 10.6132 46.4624 10.5605C46.4624 10.5079 46.3858 10.4648 46.2923 10.4648C46.1988 10.4648 46.0602 10.3787 45.9844 10.2734C45.9034 10.1611 45.7369 10.082 45.5809 10.082C45.4348 10.082 45.3152 10.039 45.3152 9.98633C45.3152 9.93312 45.0602 9.89062 44.7416 9.89062C44.423 9.89062 44.168 9.84813 44.168 9.79492C44.168 9.74228 44.0389 9.69922 43.8812 9.69922C43.7234 9.69922 43.5944 9.74228 43.5944 9.79492ZM57.1698 9.79492C57.1698 9.84813 56.9148 9.89062 56.5962 9.89062C56.2776 9.89062 56.0226 9.93312 56.0226 9.98633C56.0226 10.039 55.8935 10.082 55.7358 10.082C55.578 10.082 55.449 10.1251 55.449 10.1777C55.449 10.2304 55.3629 10.2734 55.2578 10.2734C55.1526 10.2734 55.0666 10.3165 55.0666 10.3691C55.0666 10.4218 54.9978 10.4648 54.9137 10.4648C54.8297 10.4648 54.6403 10.594 54.493 10.752C54.3456 10.9099 54.1747 11.0391 54.1131 11.0391C53.9688 11.0391 53.7282 11.2799 53.7282 11.4245C53.7282 11.4861 53.5991 11.6572 53.4413 11.8047C53.2836 11.9522 53.1545 12.1418 53.1545 12.2259C53.1545 12.3101 53.1115 12.3789 53.0589 12.3789C53.0064 12.3789 52.9633 12.465 52.9633 12.5703C52.9633 12.6756 52.9203 12.7617 52.8677 12.7617C52.8152 12.7617 52.7721 12.8909 52.7721 13.0488C52.7721 13.2067 52.7291 13.3359 52.6765 13.3359C52.624 13.3359 52.5809 13.5082 52.5809 13.7188C52.5809 13.9293 52.5379 14.1016 52.4853 14.1016C52.4307 14.1016 52.3897 14.3887 52.3897 14.7715C52.3897 15.1543 52.4307 15.4414 52.4853 15.4414C52.5379 15.4414 52.5809 15.6137 52.5809 15.8242C52.5809 16.0348 52.624 16.207 52.6765 16.207C52.7291 16.207 52.7721 16.3362 52.7721 16.4941C52.7721 16.6521 52.8152 16.7812 52.8677 16.7812C52.9203 16.7812 52.9633 16.8674 52.9633 16.9727C52.9633 17.0779 53.0064 17.1641 53.0589 17.1641C53.1115 17.1641 53.1545 17.2293 53.1545 17.3091C53.1545 17.4983 54.5415 18.8867 54.7304 18.8867C54.8102 18.8867 54.8754 18.9298 54.8754 18.9824C54.8754 19.0351 54.9614 19.0781 55.0666 19.0781C55.1717 19.0781 55.2578 19.1212 55.2578 19.1738C55.2578 19.2265 55.3438 19.2695 55.449 19.2695C55.5541 19.2695 55.6402 19.3126 55.6402 19.3652C55.6402 19.4179 55.7692 19.4609 55.927 19.4609C56.0847 19.4609 56.2138 19.504 56.2138 19.5566C56.2138 19.6151 56.66 19.6523 57.361 19.6523C58.0621 19.6523 58.5082 19.6151 58.5082 19.5566C58.5082 19.504 58.6803 19.4609 58.8906 19.4609C59.101 19.4609 59.273 19.4179 59.273 19.3652C59.273 19.3126 59.3591 19.2695 59.4643 19.2695C59.5694 19.2695 59.6555 19.2265 59.6555 19.1738C59.6555 19.1212 59.7242 19.0781 59.8083 19.0781C59.8924 19.0781 60.0817 18.9489 60.2291 18.791C60.3764 18.6331 60.5462 18.5039 60.6064 18.5039C60.7571 18.5039 61.1851 18.0627 61.1851 17.9073C61.1851 17.8376 61.2711 17.7185 61.3763 17.6426C61.4814 17.5667 61.5675 17.4375 61.5675 17.3555C61.5675 17.2735 61.6535 17.1443 61.7587 17.0684C61.8709 16.9873 61.9499 16.8206 61.9499 16.6644C61.9499 16.5182 61.9929 16.3984 62.0455 16.3984C62.0981 16.3984 62.1411 16.2692 62.1411 16.1113C62.1411 15.9534 62.1841 15.8242 62.2367 15.8242C62.2946 15.8242 62.3323 15.4095 62.3323 14.7715C62.3323 14.1334 62.2946 13.7188 62.2367 13.7188C62.1841 13.7188 62.1411 13.5896 62.1411 13.4316C62.1411 13.2737 62.0981 13.1445 62.0455 13.1445C61.9929 13.1445 61.9499 13.0153 61.9499 12.8574C61.9499 12.6995 61.9069 12.5703 61.8543 12.5703C61.8017 12.5703 61.7587 12.4937 61.7587 12.4001C61.7587 12.3064 61.6727 12.1677 61.5675 12.0918C61.4623 12.0159 61.3763 11.8978 61.3763 11.8294C61.3763 11.6551 60.3605 10.6562 60.1834 10.6562C60.1033 10.6562 60.0379 10.6132 60.0379 10.5605C60.0379 10.5079 59.9518 10.4648 59.8467 10.4648C59.7415 10.4648 59.6555 10.4218 59.6555 10.3691C59.6555 10.3165 59.5694 10.2734 59.4643 10.2734C59.3591 10.2734 59.273 10.2304 59.273 10.1777C59.273 10.1251 59.144 10.082 58.9862 10.082C58.8285 10.082 58.6994 10.039 58.6994 9.98633C58.6994 9.93312 58.4445 9.89062 58.1258 9.89062C57.8072 9.89062 57.5522 9.84813 57.5522 9.79492C57.5522 9.74228 57.4662 9.69922 57.361 9.69922C57.2559 9.69922 57.1698 9.74228 57.1698 9.79492ZM17.2083 13.0488C17.2083 13.1015 17.3173 13.1445 17.4505 13.1445C17.7198 13.1445 18.3555 13.7137 18.3555 13.9549C18.3555 14.0355 18.3985 14.1016 18.4511 14.1016C18.5057 14.1016 18.5467 14.3887 18.5467 14.7715C18.5467 15.1543 18.5057 15.4414 18.4511 15.4414C18.3985 15.4414 18.3555 15.5079 18.3555 15.5893C18.3555 15.7808 17.9297 16.207 17.7384 16.207C17.6572 16.207 17.5907 16.2501 17.5907 16.3027C17.5907 16.3554 17.4616 16.3984 17.3039 16.3984C17.1462 16.3984 17.0171 16.4415 17.0171 16.4941C17.0171 16.5468 16.888 16.5898 16.7303 16.5898C16.5726 16.5898 16.4435 16.5468 16.4435 16.4941C16.4435 16.4415 16.3345 16.3984 16.2013 16.3984C15.932 16.3984 15.2963 15.8293 15.2963 15.5881C15.2963 15.5074 15.2533 15.4414 15.2007 15.4414C15.1481 15.4414 15.1051 15.3158 15.1051 15.1622C15.1051 15.0087 15.0513 14.858 14.9856 14.8273C14.89 14.7827 14.89 14.7603 14.9856 14.7157C15.0513 14.685 15.1051 14.5116 15.1051 14.3303C15.1051 14.0677 15.1919 13.9139 15.5328 13.5727C15.768 13.3372 16.0261 13.1445 16.1064 13.1445C16.1866 13.1445 16.2523 13.1015 16.2523 13.0488C16.2523 12.9962 16.4674 12.9531 16.7303 12.9531C16.9932 12.9531 17.2083 12.9962 17.2083 13.0488ZM30.7837 13.0488C30.7837 13.1015 30.8698 13.1445 30.9749 13.1445C31.0801 13.1445 31.1662 13.1876 31.1662 13.2402C31.1662 13.2929 31.2337 13.3359 31.3163 13.3359C31.5096 13.3359 31.7398 13.5664 31.7398 13.7598C31.7398 13.8425 31.7828 13.9102 31.8354 13.9102C31.8879 13.9102 31.931 13.9963 31.931 14.1016C31.931 14.2068 31.974 14.293 32.0266 14.293C32.0791 14.293 32.1222 14.5083 32.1222 14.7715C32.1222 15.0347 32.0791 15.25 32.0266 15.25C31.974 15.25 31.931 15.3361 31.931 15.4414C31.931 15.5467 31.8879 15.6328 31.8354 15.6328C31.7828 15.6328 31.7398 15.7005 31.7398 15.7832C31.7398 15.9766 31.5096 16.207 31.3163 16.207C31.2337 16.207 31.1662 16.2501 31.1662 16.3027C31.1662 16.3554 31.0371 16.3984 30.8793 16.3984C30.7216 16.3984 30.5925 16.4415 30.5925 16.4941C30.5925 16.5468 30.4635 16.5898 30.3057 16.5898C30.148 16.5898 30.0189 16.5468 30.0189 16.4941C30.0189 16.4415 29.9102 16.3984 29.7774 16.3984C29.4481 16.3984 28.6805 15.63 28.6805 15.3003C28.6805 15.1674 28.6375 15.0586 28.5849 15.0586C28.5323 15.0586 28.4893 14.9294 28.4893 14.7715C28.4893 14.6136 28.5323 14.4844 28.5849 14.4844C28.6375 14.4844 28.6805 14.3552 28.6805 14.1973C28.6805 14.0394 28.7235 13.9102 28.7761 13.9102C28.8287 13.9102 28.8717 13.8425 28.8717 13.7598C28.8717 13.5664 29.1019 13.3359 29.2951 13.3359C29.3777 13.3359 29.4453 13.2929 29.4453 13.2402C29.4453 13.1876 29.5314 13.1445 29.6365 13.1445C29.7417 13.1445 29.8277 13.1015 29.8277 13.0488C29.8277 12.9962 30.0428 12.9531 30.3057 12.9531C30.5686 12.9531 30.7837 12.9962 30.7837 13.0488ZM44.3592 13.0488C44.3592 13.1015 44.4452 13.1445 44.5504 13.1445C44.6556 13.1445 44.7416 13.1876 44.7416 13.2402C44.7416 13.2929 44.8092 13.3359 44.8918 13.3359C45.085 13.3359 45.3152 13.5664 45.3152 13.7598C45.3152 13.8425 45.3582 13.9102 45.4108 13.9102C45.4634 13.9102 45.5064 14.0394 45.5064 14.1973C45.5064 14.3552 45.5494 14.4844 45.602 14.4844C45.6546 14.4844 45.6976 14.6136 45.6976 14.7715C45.6976 14.9294 45.6546 15.0586 45.602 15.0586C45.5494 15.0586 45.5064 15.1674 45.5064 15.3003C45.5064 15.63 44.7388 16.3984 44.4095 16.3984C44.2767 16.3984 44.168 16.4415 44.168 16.4941C44.168 16.5468 44.0389 16.5898 43.8812 16.5898C43.7234 16.5898 43.5944 16.5468 43.5944 16.4941C43.5944 16.4415 43.4653 16.3984 43.3076 16.3984C43.1498 16.3984 43.0208 16.3554 43.0208 16.3027C43.0208 16.2501 42.9532 16.207 42.8706 16.207C42.6774 16.207 42.4472 15.9766 42.4472 15.7832C42.4472 15.7005 42.4041 15.6328 42.3516 15.6328C42.299 15.6328 42.2559 15.5467 42.2559 15.4414C42.2559 15.3361 42.2129 15.25 42.1603 15.25C42.1078 15.25 42.0647 15.0347 42.0647 14.7715C42.0647 14.5083 42.1078 14.293 42.1603 14.293C42.2129 14.293 42.2559 14.2068 42.2559 14.1016C42.2559 13.9963 42.299 13.9102 42.3516 13.9102C42.4041 13.9102 42.4472 13.8425 42.4472 13.7598C42.4472 13.5664 42.6774 13.3359 42.8706 13.3359C42.9532 13.3359 43.0208 13.2929 43.0208 13.2402C43.0208 13.1876 43.1068 13.1445 43.212 13.1445C43.3171 13.1445 43.4032 13.1015 43.4032 13.0488C43.4032 12.9962 43.6183 12.9531 43.8812 12.9531C44.1441 12.9531 44.3592 12.9962 44.3592 13.0488ZM57.9346 13.0488C57.9346 13.1015 58.0003 13.1445 58.0805 13.1445C58.1608 13.1445 58.4189 13.3372 58.6541 13.5727C58.995 13.9139 59.0818 14.0677 59.0818 14.3303C59.0818 14.5116 59.1357 14.685 59.2013 14.7157C59.2969 14.7603 59.2969 14.7827 59.2013 14.8273C59.1357 14.858 59.0818 15.0087 59.0818 15.1622C59.0818 15.3158 59.0388 15.4414 58.9862 15.4414C58.9337 15.4414 58.8906 15.5074 58.8906 15.5881C58.8906 15.8293 58.2549 16.3984 57.9856 16.3984C57.8524 16.3984 57.7434 16.4415 57.7434 16.4941C57.7434 16.5468 57.6144 16.5898 57.4566 16.5898C57.2989 16.5898 57.1698 16.5468 57.1698 16.4941C57.1698 16.4415 57.0407 16.3984 56.883 16.3984C56.7253 16.3984 56.5962 16.3554 56.5962 16.3027C56.5962 16.2501 56.5286 16.207 56.446 16.207C56.2617 16.207 56.0226 15.9795 56.0226 15.8043C56.0226 15.7332 55.9366 15.613 55.8314 15.5371C55.6725 15.4225 55.6402 15.2893 55.6402 14.7503C55.6402 14.3816 55.6815 14.1016 55.7358 14.1016C55.7884 14.1016 55.8314 14.0355 55.8314 13.9549C55.8314 13.7137 56.4671 13.1445 56.7364 13.1445C56.8696 13.1445 56.9786 13.1015 56.9786 13.0488C56.9786 12.9962 57.1937 12.9531 57.4566 12.9531C57.7195 12.9531 57.9346 12.9962 57.9346 13.0488ZM70.9365 89.9992L70.5087 90.4273C70.2736 90.6628 70.0154 90.8555 69.9351 90.8555C69.8549 90.8555 69.7892 90.8985 69.7892 90.9512C69.7892 91.0148 58.8269 91.0469 37.0935 91.0469C15.36 91.0469 4.39768 91.0148 4.39768 90.9512C4.39768 90.8985 4.332 90.8555 4.25179 90.8555C4.17148 90.8555 3.91336 90.6628 3.67818 90.4273L3.25046 89.9992V26.543H70.9365V89.9992ZM11.4722 31.8066C11.4722 31.8593 11.2571 31.9023 10.9942 31.9023C10.7313 31.9023 10.5162 31.9454 10.5162 31.998C10.5162 32.0507 10.4396 32.0938 10.3461 32.0938C10.2525 32.0938 10.114 32.1799 10.0382 32.2852C9.96237 32.3904 9.84391 32.4766 9.77489 32.4766C9.60061 32.4766 8.98656 33.1077 8.98656 33.2869C8.98656 33.3676 8.94354 33.4336 8.89096 33.4336C8.83838 33.4336 8.79536 33.5197 8.79536 33.625C8.79536 33.7303 8.75233 33.8164 8.69975 33.8164C8.64717 33.8164 8.60415 33.9456 8.60415 34.1035C8.60415 34.2614 8.56113 34.3906 8.50855 34.3906C8.44507 34.3906 8.41295 42.5892 8.41295 58.7949C8.41295 75.0006 8.44507 83.1992 8.50855 83.1992C8.56113 83.1992 8.60415 83.3284 8.60415 83.4863C8.60415 83.6442 8.64717 83.7734 8.69975 83.7734C8.75233 83.7734 8.79536 83.8501 8.79536 83.9437C8.79536 84.0374 8.8814 84.1761 8.98656 84.252C9.09172 84.3278 9.17776 84.4481 9.17776 84.5192C9.17776 84.6858 9.41361 84.9219 9.58005 84.9219C9.65109 84.9219 9.77116 85.008 9.84697 85.1133C9.92279 85.2186 10.0613 85.3047 10.1549 85.3047C10.2484 85.3047 10.325 85.3478 10.325 85.4004C10.325 85.453 10.411 85.4961 10.5162 85.4961C10.6213 85.4961 10.7074 85.5392 10.7074 85.5918C10.7074 85.6553 19.5665 85.6875 37.0935 85.6875C54.6204 85.6875 63.4795 85.6553 63.4795 85.5918C63.4795 85.5392 63.5656 85.4961 63.6707 85.4961C63.7759 85.4961 63.8619 85.453 63.8619 85.4004C63.8619 85.3478 63.9385 85.3047 64.032 85.3047C64.1256 85.3047 64.2641 85.2186 64.3399 85.1133C64.4158 85.008 64.5358 84.9219 64.6069 84.9219C64.7733 84.9219 65.0091 84.6858 65.0091 84.5192C65.0091 84.4481 65.0952 84.3278 65.2004 84.252C65.3055 84.1761 65.3916 84.0374 65.3916 83.9437C65.3916 83.8501 65.4346 83.7734 65.4872 83.7734C65.5397 83.7734 65.5828 83.6442 65.5828 83.4863C65.5828 83.3284 65.6258 83.1992 65.6784 83.1992C65.7418 83.1992 65.774 75.0006 65.774 58.7949C65.774 42.5892 65.7418 34.3906 65.6784 34.3906C65.6258 34.3906 65.5828 34.2614 65.5828 34.1035C65.5828 33.9456 65.5397 33.8164 65.4872 33.8164C65.4346 33.8164 65.3916 33.7303 65.3916 33.625C65.3916 33.5197 65.3485 33.4336 65.296 33.4336C65.2434 33.4336 65.2004 33.3676 65.2004 33.2869C65.2004 33.1077 64.5863 32.4766 64.412 32.4766C64.343 32.4766 64.2245 32.3904 64.1487 32.2852C64.0729 32.1799 63.9344 32.0938 63.8408 32.0938C63.7473 32.0938 63.6707 32.0507 63.6707 31.998C63.6707 31.9454 63.4556 31.9023 63.1927 31.9023C62.9298 31.9023 62.7147 31.8593 62.7147 31.8066C62.7147 31.7431 54.1106 31.7109 37.0935 31.7109C20.0764 31.7109 11.4722 31.7431 11.4722 31.8066ZM62.5235 45.3008H11.6634V34.9648H62.5235V45.3008ZM22.9444 38.6973C22.9444 38.7499 22.8768 38.793 22.7942 38.793C22.6099 38.793 22.3708 39.0205 22.3708 39.1957C22.3708 39.2668 22.2848 39.387 22.1796 39.4629C22.0263 39.5734 21.9884 39.7107 21.9884 40.154C21.9884 40.4589 22.0313 40.707 22.084 40.707C22.1366 40.707 22.1796 40.7735 22.1796 40.8549C22.1796 41.0464 22.6054 41.4727 22.7967 41.4727C22.878 41.4727 22.9444 41.5157 22.9444 41.5684C22.9444 41.6317 27.7245 41.6641 37.0935 41.6641C46.4624 41.6641 51.2425 41.6317 51.2425 41.5684C51.2425 41.5157 51.3089 41.4727 51.3902 41.4727C51.5815 41.4727 52.0073 41.0464 52.0073 40.8549C52.0073 40.7735 52.0503 40.707 52.1029 40.707C52.1561 40.707 52.1985 40.4518 52.1985 40.1328C52.1985 39.8138 52.1561 39.5586 52.1029 39.5586C52.0503 39.5586 52.0073 39.4921 52.0073 39.4107C52.0073 39.2192 51.5815 38.793 51.3902 38.793C51.3089 38.793 51.2425 38.7499 51.2425 38.6973C51.2425 38.6339 46.4624 38.6016 37.0935 38.6016C27.7245 38.6016 22.9444 38.6339 22.9444 38.6973ZM62.5235 82.625H11.6634V48.5547H62.5235V82.625ZM24.2111 52.5302C24.0402 52.7094 23.9004 52.9217 23.9004 53.0022C23.9004 53.0826 23.8574 53.1484 23.8048 53.1484C23.746 53.1484 23.7092 53.627 23.7092 54.3926C23.7092 55.1582 23.746 55.6367 23.8048 55.6367C23.8574 55.6367 23.9004 55.8521 23.9004 56.1152C23.9004 56.3784 23.9434 56.5938 23.996 56.5938C24.0486 56.5938 24.0916 56.766 24.0916 56.9766C24.0916 57.1871 24.1346 57.3594 24.1872 57.3594C24.2398 57.3594 24.2828 57.4886 24.2828 57.6465C24.2828 57.8044 24.3258 57.9336 24.3784 57.9336C24.431 57.9336 24.474 58.0628 24.474 58.2207C24.474 58.3786 24.5171 58.5078 24.5696 58.5078C24.6222 58.5078 24.6652 58.5939 24.6652 58.6992C24.6652 58.8045 24.7083 58.8906 24.7608 58.8906C24.8134 58.8906 24.8564 58.9768 24.8564 59.082C24.8564 59.1873 24.8995 59.2734 24.952 59.2734C25.0046 59.2734 25.0476 59.3596 25.0476 59.4648C25.0476 59.5701 25.0907 59.6562 25.1432 59.6562C25.1958 59.6562 25.2388 59.7424 25.2388 59.8477C25.2388 59.9529 25.2819 60.0391 25.3344 60.0391C25.387 60.0391 25.43 60.1157 25.43 60.2093C25.43 60.303 25.5161 60.4417 25.6213 60.5176C25.7264 60.5935 25.8125 60.7321 25.8125 60.8258C25.8125 60.9194 25.8555 60.9961 25.9081 60.9961C25.9606 60.9961 26.0037 61.0822 26.0037 61.1875C26.0037 61.2928 26.0467 61.3789 26.0993 61.3789C26.1518 61.3789 26.1949 61.465 26.1949 61.5703C26.1949 61.6756 26.2379 61.7617 26.2905 61.7617C26.343 61.7617 26.3861 61.8909 26.3861 62.0488C26.3861 62.2067 26.4291 62.3359 26.4817 62.3359C26.5343 62.3359 26.5773 62.4651 26.5773 62.623C26.5773 62.781 26.6203 62.9102 26.6729 62.9102C26.7255 62.9102 26.7685 63.0824 26.7685 63.293C26.7685 63.5035 26.8115 63.6758 26.8641 63.6758C26.9246 63.6758 26.9597 64.3776 26.9597 65.5898C26.9597 66.8021 26.9246 67.5039 26.8641 67.5039C26.8115 67.5039 26.7685 67.6762 26.7685 67.8867C26.7685 68.0973 26.7255 68.2695 26.6729 68.2695C26.6203 68.2695 26.5773 68.3987 26.5773 68.5566C26.5773 68.7146 26.5343 68.8438 26.4817 68.8438C26.4291 68.8438 26.3861 68.9299 26.3861 69.0352C26.3861 69.1404 26.343 69.2266 26.2905 69.2266C26.2379 69.2266 26.1949 69.3463 26.1949 69.4925C26.1949 69.6487 26.1159 69.8154 26.0037 69.8965C25.8985 69.9724 25.8125 70.111 25.8125 70.2047C25.8125 70.2983 25.7694 70.375 25.7169 70.375C25.6643 70.375 25.6213 70.4611 25.6213 70.5664C25.6213 70.6717 25.5782 70.7578 25.5257 70.7578C25.4731 70.7578 25.43 70.8439 25.43 70.9492C25.43 71.0545 25.387 71.1406 25.3344 71.1406C25.2819 71.1406 25.2388 71.2173 25.2388 71.3109C25.2388 71.4046 25.1528 71.5433 25.0476 71.6191C24.9354 71.7002 24.8564 71.8669 24.8564 72.0231C24.8564 72.1693 24.8134 72.2891 24.7608 72.2891C24.7083 72.2891 24.6652 72.3752 24.6652 72.4805C24.6652 72.5857 24.6222 72.6719 24.5696 72.6719C24.5171 72.6719 24.474 72.758 24.474 72.8633C24.474 72.9686 24.431 73.0547 24.3784 73.0547C24.3258 73.0547 24.2828 73.227 24.2828 73.4375C24.2828 73.648 24.2398 73.8203 24.1872 73.8203C24.1346 73.8203 24.0916 73.9926 24.0916 74.2031C24.0916 74.4137 24.0486 74.5859 23.996 74.5859C23.9434 74.5859 23.9004 74.7582 23.9004 74.9688C23.9004 75.1793 23.8574 75.3516 23.8048 75.3516C23.7456 75.3516 23.7092 75.8619 23.7092 76.6914C23.7092 77.5209 23.7456 78.0312 23.8048 78.0312C23.8574 78.0312 23.9004 78.0989 23.9004 78.1816C23.9004 78.375 24.1306 78.6055 24.3238 78.6055C24.4064 78.6055 24.474 78.6485 24.474 78.7012C24.474 78.7538 24.5601 78.7969 24.6652 78.7969C24.7704 78.7969 24.8564 78.8399 24.8564 78.8926C24.8564 78.9452 25.0715 78.9883 25.3344 78.9883C25.5974 78.9883 25.8125 78.9452 25.8125 78.8926C25.8125 78.8399 25.8789 78.7969 25.9602 78.7969C26.1515 78.7969 26.5773 78.3706 26.5773 78.1791C26.5773 78.0978 26.6203 78.0312 26.6729 78.0312C26.7255 78.0312 26.7685 77.8159 26.7685 77.5527C26.7685 77.2896 26.8115 77.0742 26.8641 77.0742C26.9208 77.0742 26.9597 76.7233 26.9597 76.2129C26.9597 75.7025 26.9986 75.3516 27.0553 75.3516C27.1079 75.3516 27.1509 75.1793 27.1509 74.9688C27.1509 74.7582 27.1939 74.5859 27.2465 74.5859C27.2991 74.5859 27.3421 74.4567 27.3421 74.2988C27.3421 74.1409 27.3851 74.0117 27.4377 74.0117C27.4903 74.0117 27.5333 73.9256 27.5333 73.8203C27.5333 73.715 27.5763 73.6289 27.6289 73.6289C27.6815 73.6289 27.7245 73.5428 27.7245 73.4375C27.7245 73.3322 27.7675 73.2461 27.8201 73.2461C27.8727 73.2461 27.9157 73.16 27.9157 73.0547C27.9157 72.9494 27.9587 72.8633 28.0113 72.8633C28.0639 72.8633 28.1069 72.7771 28.1069 72.6719C28.1069 72.5666 28.1499 72.4805 28.2025 72.4805C28.2551 72.4805 28.2981 72.3943 28.2981 72.2891C28.2981 72.1838 28.3411 72.0977 28.3937 72.0977C28.4463 72.0977 28.4893 72.0115 28.4893 71.9062C28.4893 71.801 28.5323 71.7148 28.5849 71.7148C28.6375 71.7148 28.6805 71.6382 28.6805 71.5446C28.6805 71.4509 28.7666 71.3122 28.8717 71.2363C28.9839 71.1553 29.0629 70.9886 29.0629 70.8324C29.0629 70.6861 29.1059 70.5664 29.1585 70.5664C29.2111 70.5664 29.2541 70.4803 29.2541 70.375C29.2541 70.2697 29.2971 70.1836 29.3497 70.1836C29.4023 70.1836 29.4453 70.0975 29.4453 69.9922C29.4453 69.8869 29.4883 69.8008 29.5409 69.8008C29.5935 69.8008 29.6365 69.6285 29.6365 69.418C29.6365 69.2074 29.6795 69.0352 29.7321 69.0352C29.7847 69.0352 29.8277 68.8629 29.8277 68.6523C29.8277 68.4418 29.8707 68.2695 29.9233 68.2695C29.9759 68.2695 30.0189 68.0542 30.0189 67.791C30.0189 67.5278 30.062 67.3125 30.1145 67.3125C30.1748 67.3125 30.2101 66.6744 30.2101 65.5898C30.2101 64.5052 30.1748 63.8672 30.1145 63.8672C30.0614 63.8672 30.0189 63.6119 30.0189 63.293C30.0189 62.974 29.9765 62.7188 29.9233 62.7188C29.8707 62.7188 29.8277 62.5465 29.8277 62.3359C29.8277 62.1254 29.7847 61.9531 29.7321 61.9531C29.6795 61.9531 29.6365 61.8239 29.6365 61.666C29.6365 61.5081 29.5935 61.3789 29.5409 61.3789C29.4883 61.3789 29.4453 61.2497 29.4453 61.0918C29.4453 60.9339 29.4023 60.8047 29.3497 60.8047C29.2971 60.8047 29.2541 60.7186 29.2541 60.6133C29.2541 60.508 29.2111 60.4219 29.1585 60.4219C29.1059 60.4219 29.0629 60.3357 29.0629 60.2305C29.0629 60.1252 29.0199 60.0391 28.9673 60.0391C28.9147 60.0391 28.8717 59.9529 28.8717 59.8477C28.8717 59.7424 28.8287 59.6562 28.7761 59.6562C28.7235 59.6562 28.6805 59.5701 28.6805 59.4648C28.6805 59.3596 28.6375 59.2734 28.5849 59.2734C28.5323 59.2734 28.4893 59.1968 28.4893 59.1032C28.4893 59.0095 28.4033 58.8708 28.2981 58.7949C28.1929 58.719 28.1069 58.5804 28.1069 58.4867C28.1069 58.3931 28.0639 58.3164 28.0113 58.3164C27.9587 58.3164 27.9157 58.2303 27.9157 58.125C27.9157 58.0197 27.8727 57.9336 27.8201 57.9336C27.7675 57.9336 27.7245 57.8475 27.7245 57.7422C27.7245 57.6369 27.6815 57.5508 27.6289 57.5508C27.5763 57.5508 27.5333 57.4216 27.5333 57.2637C27.5333 57.1058 27.4903 56.9766 27.4377 56.9766C27.3851 56.9766 27.3421 56.8904 27.3421 56.7852C27.3421 56.6799 27.2991 56.5938 27.2465 56.5938C27.1939 56.5938 27.1509 56.4215 27.1509 56.2109C27.1509 56.0004 27.1079 55.8281 27.0553 55.8281C26.9986 55.8281 26.9597 55.4772 26.9597 54.9668C26.9597 54.4564 26.9208 54.1055 26.8641 54.1055C26.8115 54.1055 26.7685 53.8675 26.7685 53.5766C26.7685 53.0778 26.7441 53.0234 26.3408 52.6196L25.9131 52.1914L25.2174 52.198C24.5545 52.2042 24.5072 52.2198 24.2111 52.5302ZM34.799 52.2871C34.799 52.3397 34.7326 52.3828 34.6513 52.3828C34.46 52.3828 34.0342 52.8091 34.0342 53.0006C34.0342 53.0819 33.9912 53.1484 33.9386 53.1484C33.8798 53.1484 33.843 53.627 33.843 54.3926C33.843 55.1582 33.8798 55.6367 33.9386 55.6367C33.9912 55.6367 34.0342 55.8521 34.0342 56.1152C34.0342 56.3784 34.0772 56.5938 34.1298 56.5938C34.1824 56.5938 34.2254 56.766 34.2254 56.9766C34.2254 57.1871 34.2684 57.3594 34.321 57.3594C34.3736 57.3594 34.4166 57.4886 34.4166 57.6465C34.4166 57.8044 34.4596 57.9336 34.5122 57.9336C34.5648 57.9336 34.6078 58.0197 34.6078 58.125C34.6078 58.2303 34.6508 58.3164 34.7034 58.3164C34.756 58.3164 34.799 58.4456 34.799 58.6035C34.799 58.7614 34.842 58.8906 34.8946 58.8906C34.9472 58.8906 34.9902 58.9768 34.9902 59.082C34.9902 59.1873 35.0332 59.2734 35.0858 59.2734C35.1384 59.2734 35.1814 59.3596 35.1814 59.4648C35.1814 59.5701 35.2244 59.6562 35.277 59.6562C35.3296 59.6562 35.3726 59.7329 35.3726 59.8265C35.3726 59.9202 35.4587 60.0589 35.5638 60.1348C35.669 60.2107 35.755 60.3493 35.755 60.443C35.755 60.5366 35.7981 60.6133 35.8506 60.6133C35.9032 60.6133 35.9462 60.6994 35.9462 60.8047C35.9462 60.91 35.9893 60.9961 36.0418 60.9961C36.0944 60.9961 36.1374 61.0822 36.1374 61.1875C36.1374 61.2928 36.1805 61.3789 36.233 61.3789C36.2856 61.3789 36.3286 61.465 36.3286 61.5703C36.3286 61.6756 36.3717 61.7617 36.4242 61.7617C36.4768 61.7617 36.5198 61.8479 36.5198 61.9531C36.5198 62.0584 36.5629 62.1445 36.6154 62.1445C36.668 62.1445 36.7111 62.2737 36.7111 62.4316C36.7111 62.5896 36.7541 62.7188 36.8067 62.7188C36.8592 62.7188 36.9023 62.891 36.9023 63.1016C36.9023 63.3121 36.9453 63.4844 36.9979 63.4844C37.0552 63.4844 37.0935 63.8672 37.0935 64.4414C37.0935 65.0156 37.1317 65.3984 37.1891 65.3984C37.2416 65.3984 37.2847 65.4846 37.2847 65.5898C37.2847 65.6951 37.2416 65.7812 37.1891 65.7812C37.1324 65.7812 37.0935 66.1322 37.0935 66.6426C37.0935 67.153 37.0545 67.5039 36.9979 67.5039C36.9453 67.5039 36.9023 67.6762 36.9023 67.8867C36.9023 68.0973 36.8592 68.2695 36.8067 68.2695C36.7541 68.2695 36.7111 68.3987 36.7111 68.5566C36.7111 68.7146 36.668 68.8438 36.6154 68.8438C36.5629 68.8438 36.5198 68.9299 36.5198 69.0352C36.5198 69.1404 36.4768 69.2266 36.4242 69.2266C36.3717 69.2266 36.3286 69.3463 36.3286 69.4925C36.3286 69.6487 36.2497 69.8154 36.1374 69.8965C36.0323 69.9724 35.9462 70.111 35.9462 70.2047C35.9462 70.2983 35.9032 70.375 35.8506 70.375C35.7981 70.375 35.755 70.4611 35.755 70.5664C35.755 70.6717 35.712 70.7578 35.6594 70.7578C35.6068 70.7578 35.5638 70.8439 35.5638 70.9492C35.5638 71.0545 35.5208 71.1406 35.4682 71.1406C35.4156 71.1406 35.3726 71.2268 35.3726 71.332C35.3726 71.4373 35.3296 71.5234 35.277 71.5234C35.2244 71.5234 35.1814 71.6096 35.1814 71.7148C35.1814 71.8201 35.1384 71.9062 35.0858 71.9062C35.0332 71.9062 34.9902 71.9924 34.9902 72.0977C34.9902 72.2029 34.9472 72.2891 34.8946 72.2891C34.842 72.2891 34.799 72.3752 34.799 72.4805C34.799 72.5857 34.756 72.6719 34.7034 72.6719C34.6508 72.6719 34.6078 72.8011 34.6078 72.959C34.6078 73.1169 34.5648 73.2461 34.5122 73.2461C34.4596 73.2461 34.4166 73.3753 34.4166 73.5332C34.4166 73.6911 34.3736 73.8203 34.321 73.8203C34.2684 73.8203 34.2254 73.9926 34.2254 74.2031C34.2254 74.4137 34.1824 74.5859 34.1298 74.5859C34.0772 74.5859 34.0342 74.8013 34.0342 75.0645C34.0342 75.3276 33.9912 75.543 33.9386 75.543C33.8799 75.543 33.843 76.0144 33.843 76.766C33.843 77.8792 33.8602 78.0014 34.0342 78.127C34.1394 78.2028 34.2254 78.3415 34.2254 78.4352C34.2254 78.5416 34.297 78.6055 34.4166 78.6055C34.5218 78.6055 34.6078 78.6485 34.6078 78.7012C34.6078 78.7538 34.6939 78.7969 34.799 78.7969C34.9042 78.7969 34.9902 78.8399 34.9902 78.8926C34.9902 78.9452 35.2053 78.9883 35.4682 78.9883C35.7311 78.9883 35.9462 78.9452 35.9462 78.8926C35.9462 78.8399 36.0127 78.7969 36.0939 78.7969C36.2852 78.7969 36.7111 78.3706 36.7111 78.1791C36.7111 78.0978 36.7541 78.0312 36.8067 78.0312C36.8592 78.0312 36.9023 77.859 36.9023 77.6484C36.9023 77.4379 36.9453 77.2656 36.9979 77.2656C37.0552 77.2656 37.0935 76.8828 37.0935 76.3086C37.0935 75.7344 37.1317 75.3516 37.1891 75.3516C37.2416 75.3516 37.2847 75.1793 37.2847 74.9688C37.2847 74.7582 37.3277 74.5859 37.3803 74.5859C37.4328 74.5859 37.4759 74.4567 37.4759 74.2988C37.4759 74.1409 37.5189 74.0117 37.5715 74.0117C37.624 74.0117 37.6671 73.9256 37.6671 73.8203C37.6671 73.715 37.7101 73.6289 37.7627 73.6289C37.8153 73.6289 37.8583 73.5428 37.8583 73.4375C37.8583 73.3322 37.9013 73.2461 37.9539 73.2461C38.0065 73.2461 38.0495 73.16 38.0495 73.0547C38.0495 72.9494 38.0925 72.8633 38.1451 72.8633C38.1977 72.8633 38.2407 72.7771 38.2407 72.6719C38.2407 72.5666 38.2837 72.4805 38.3363 72.4805C38.3889 72.4805 38.4319 72.3943 38.4319 72.2891C38.4319 72.1838 38.4749 72.0977 38.5275 72.0977C38.5801 72.0977 38.6231 72.021 38.6231 71.9274C38.6231 71.8337 38.7091 71.695 38.8143 71.6191C38.9195 71.5433 39.0055 71.4046 39.0055 71.3109C39.0055 71.2173 39.0485 71.1406 39.1011 71.1406C39.1537 71.1406 39.1967 71.0545 39.1967 70.9492C39.1967 70.8439 39.2397 70.7578 39.2923 70.7578C39.3449 70.7578 39.3879 70.6286 39.3879 70.4707C39.3879 70.3128 39.4309 70.1836 39.4835 70.1836C39.5361 70.1836 39.5791 70.0975 39.5791 69.9922C39.5791 69.8869 39.6221 69.8008 39.6747 69.8008C39.7273 69.8008 39.7703 69.6716 39.7703 69.5137C39.7703 69.3558 39.8133 69.2266 39.8659 69.2266C39.9185 69.2266 39.9615 69.0543 39.9615 68.8438C39.9615 68.6332 40.0045 68.4609 40.0571 68.4609C40.1097 68.4609 40.1527 68.2456 40.1527 67.9824C40.1527 67.7192 40.1957 67.5039 40.2483 67.5039C40.3088 67.5039 40.3439 66.8021 40.3439 65.5898C40.3439 64.3776 40.3088 63.6758 40.2483 63.6758C40.1957 63.6758 40.1527 63.4604 40.1527 63.1973C40.1527 62.9341 40.1097 62.7188 40.0571 62.7188C40.0045 62.7188 39.9615 62.5465 39.9615 62.3359C39.9615 62.1254 39.9185 61.9531 39.8659 61.9531C39.8133 61.9531 39.7703 61.8239 39.7703 61.666C39.7703 61.5081 39.7273 61.3789 39.6747 61.3789C39.6221 61.3789 39.5791 61.2497 39.5791 61.0918C39.5791 60.9339 39.5361 60.8047 39.4835 60.8047C39.4309 60.8047 39.3879 60.7186 39.3879 60.6133C39.3879 60.508 39.3449 60.4219 39.2923 60.4219C39.2397 60.4219 39.1967 60.3357 39.1967 60.2305C39.1967 60.1252 39.1537 60.0391 39.1011 60.0391C39.0485 60.0391 39.0055 59.9529 39.0055 59.8477C39.0055 59.7424 38.9625 59.6562 38.9099 59.6562C38.8573 59.6562 38.8143 59.5701 38.8143 59.4648C38.8143 59.3596 38.7713 59.2734 38.7187 59.2734C38.6661 59.2734 38.6231 59.1873 38.6231 59.082C38.6231 58.9768 38.5801 58.8906 38.5275 58.8906C38.4749 58.8906 38.4319 58.814 38.4319 58.7204C38.4319 58.6267 38.3458 58.488 38.2407 58.4121C38.1355 58.3362 38.0495 58.1975 38.0495 58.1038C38.0495 58.0103 38.0065 57.9336 37.9539 57.9336C37.9013 57.9336 37.8583 57.8475 37.8583 57.7422C37.8583 57.6369 37.8153 57.5508 37.7627 57.5508C37.7101 57.5508 37.6671 57.4216 37.6671 57.2637C37.6671 57.1058 37.624 56.9766 37.5715 56.9766C37.5189 56.9766 37.4759 56.8904 37.4759 56.7852C37.4759 56.6799 37.4328 56.5938 37.3803 56.5938C37.3277 56.5938 37.2847 56.3784 37.2847 56.1152C37.2847 55.8521 37.2416 55.6367 37.1891 55.6367C37.1317 55.6367 37.0935 55.2539 37.0935 54.6797C37.0935 54.1055 37.0552 53.7227 36.9979 53.7227C36.9453 53.7227 36.9023 53.5708 36.9023 53.3852C36.9023 53.1131 36.8194 52.9647 36.4745 52.6196C36.0554 52.1999 36.0344 52.1914 35.4229 52.1914C35.0707 52.1914 34.799 52.233 34.799 52.2871ZM44.9328 52.2871C44.9328 52.3397 44.8664 52.3828 44.7851 52.3828C44.7038 52.3828 44.5317 52.4886 44.4027 52.6178C44.2736 52.747 44.168 52.9192 44.168 53.0006C44.168 53.0819 44.125 53.1484 44.0724 53.1484C44.014 53.1484 43.9768 53.5951 43.9768 54.2969C43.9768 54.9987 44.014 55.4453 44.0724 55.4453C44.125 55.4453 44.168 55.6606 44.168 55.9238C44.168 56.187 44.211 56.4023 44.2636 56.4023C44.3162 56.4023 44.3592 56.5746 44.3592 56.7852C44.3592 56.9957 44.4022 57.168 44.4548 57.168C44.5074 57.168 44.5504 57.3402 44.5504 57.5508C44.5504 57.7613 44.5934 57.9336 44.646 57.9336C44.6986 57.9336 44.7416 58.0197 44.7416 58.125C44.7416 58.2303 44.7846 58.3164 44.8372 58.3164C44.8898 58.3164 44.9328 58.4025 44.9328 58.5078C44.9328 58.6131 44.9758 58.6992 45.0284 58.6992C45.081 58.6992 45.124 58.8284 45.124 58.9863C45.124 59.1442 45.167 59.2734 45.2196 59.2734C45.2722 59.2734 45.3152 59.3501 45.3152 59.4437C45.3152 59.5374 45.4012 59.6761 45.5064 59.752C45.6116 59.8278 45.6976 59.9665 45.6976 60.0602C45.6976 60.1538 45.7406 60.2305 45.7932 60.2305C45.8458 60.2305 45.8888 60.3166 45.8888 60.4219C45.8888 60.5271 45.9318 60.6133 45.9844 60.6133C46.037 60.6133 46.08 60.6994 46.08 60.8047C46.08 60.91 46.123 60.9961 46.1756 60.9961C46.2282 60.9961 46.2712 61.0822 46.2712 61.1875C46.2712 61.2928 46.3142 61.3789 46.3668 61.3789C46.4194 61.3789 46.4624 61.465 46.4624 61.5703C46.4624 61.6756 46.5054 61.7617 46.558 61.7617C46.6106 61.7617 46.6536 61.8479 46.6536 61.9531C46.6536 62.0584 46.6966 62.1445 46.7492 62.1445C46.8018 62.1445 46.8448 62.2737 46.8448 62.4316C46.8448 62.5896 46.8878 62.7188 46.9404 62.7188C46.993 62.7188 47.036 62.891 47.036 63.1016C47.036 63.3121 47.0791 63.4844 47.1316 63.4844C47.1883 63.4844 47.2272 63.8353 47.2272 64.3457C47.2272 64.8561 47.2661 65.207 47.3228 65.207C47.3754 65.207 47.4184 65.3793 47.4184 65.5898C47.4184 65.8004 47.3754 65.9727 47.3228 65.9727C47.2661 65.9727 47.2272 66.3236 47.2272 66.834C47.2272 67.3444 47.1883 67.6953 47.1316 67.6953C47.0791 67.6953 47.036 67.8676 47.036 68.0781C47.036 68.2887 46.993 68.4609 46.9404 68.4609C46.8878 68.4609 46.8448 68.5471 46.8448 68.6523C46.8448 68.7576 46.8018 68.8438 46.7492 68.8438C46.6966 68.8438 46.6536 68.9729 46.6536 69.1309C46.6536 69.2888 46.6106 69.418 46.558 69.418C46.5054 69.418 46.4624 69.5041 46.4624 69.6094C46.4624 69.7146 46.4194 69.8008 46.3668 69.8008C46.3142 69.8008 46.2712 69.8774 46.2712 69.971C46.2712 70.0647 46.1852 70.2034 46.08 70.2793C45.9749 70.3552 45.8888 70.4939 45.8888 70.5876C45.8888 70.6812 45.8458 70.7578 45.7932 70.7578C45.7406 70.7578 45.6976 70.8439 45.6976 70.9492C45.6976 71.0545 45.6546 71.1406 45.602 71.1406C45.5494 71.1406 45.5064 71.2268 45.5064 71.332C45.5064 71.4373 45.4634 71.5234 45.4108 71.5234C45.3582 71.5234 45.3152 71.6096 45.3152 71.7148C45.3152 71.8201 45.2722 71.9062 45.2196 71.9062C45.167 71.9062 45.124 71.9924 45.124 72.0977C45.124 72.2029 45.081 72.2891 45.0284 72.2891C44.9758 72.2891 44.9328 72.3752 44.9328 72.4805C44.9328 72.5857 44.8898 72.6719 44.8372 72.6719C44.7846 72.6719 44.7416 72.8011 44.7416 72.959C44.7416 73.1169 44.6986 73.2461 44.646 73.2461C44.5934 73.2461 44.5504 73.3753 44.5504 73.5332C44.5504 73.6911 44.5074 73.8203 44.4548 73.8203C44.4022 73.8203 44.3592 73.9926 44.3592 74.2031C44.3592 74.4137 44.3162 74.5859 44.2636 74.5859C44.2104 74.5859 44.168 74.8412 44.168 75.1602C44.168 75.4791 44.1255 75.7344 44.0724 75.7344C44.0141 75.7344 43.9768 76.1739 43.9768 76.8617C43.9768 77.8792 43.9954 78.0024 44.168 78.127C44.2731 78.2028 44.3592 78.3415 44.3592 78.4352C44.3592 78.5416 44.4308 78.6055 44.5504 78.6055C44.6556 78.6055 44.7416 78.6485 44.7416 78.7012C44.7416 78.7538 44.8276 78.7969 44.9328 78.7969C45.038 78.7969 45.124 78.8399 45.124 78.8926C45.124 78.9452 45.3391 78.9883 45.602 78.9883C45.8649 78.9883 46.08 78.9452 46.08 78.8926C46.08 78.8399 46.146 78.7969 46.2266 78.7969C46.3073 78.7969 46.5224 78.6476 46.7046 78.4651C46.9577 78.2117 47.036 78.0535 47.036 77.7952C47.036 77.6092 47.0791 77.457 47.1316 77.457C47.189 77.457 47.2272 77.0742 47.2272 76.5C47.2272 75.9258 47.2655 75.543 47.3228 75.543C47.3754 75.543 47.4184 75.3707 47.4184 75.1602C47.4184 74.9496 47.4615 74.7773 47.514 74.7773C47.5666 74.7773 47.6096 74.6481 47.6096 74.4902C47.6096 74.3323 47.6527 74.2031 47.7052 74.2031C47.7578 74.2031 47.8008 74.0739 47.8008 73.916C47.8008 73.7581 47.8439 73.6289 47.8964 73.6289C47.949 73.6289 47.9921 73.5428 47.9921 73.4375C47.9921 73.3322 48.0351 73.2461 48.0877 73.2461C48.1402 73.2461 48.1833 73.16 48.1833 73.0547C48.1833 72.9494 48.2263 72.8633 48.2789 72.8633C48.3314 72.8633 48.3745 72.7771 48.3745 72.6719C48.3745 72.5666 48.4175 72.4805 48.4701 72.4805C48.5226 72.4805 48.5657 72.4038 48.5657 72.3102C48.5657 72.2165 48.6517 72.0778 48.7569 72.002C48.862 71.9261 48.9481 71.7874 48.9481 71.6937C48.9481 71.6001 48.9911 71.5234 49.0437 71.5234C49.0962 71.5234 49.1393 71.4373 49.1393 71.332C49.1393 71.2268 49.1823 71.1406 49.2349 71.1406C49.2875 71.1406 49.3305 71.0545 49.3305 70.9492C49.3305 70.8439 49.3735 70.7578 49.4261 70.7578C49.4787 70.7578 49.5217 70.6286 49.5217 70.4707C49.5217 70.3128 49.5647 70.1836 49.6173 70.1836C49.6699 70.1836 49.7129 70.0975 49.7129 69.9922C49.7129 69.8869 49.7559 69.8008 49.8085 69.8008C49.8611 69.8008 49.9041 69.6716 49.9041 69.5137C49.9041 69.3558 49.9471 69.2266 49.9997 69.2266C50.0523 69.2266 50.0953 69.0543 50.0953 68.8438C50.0953 68.6332 50.1383 68.4609 50.1909 68.4609C50.2435 68.4609 50.2865 68.2456 50.2865 67.9824C50.2865 67.7192 50.3295 67.5039 50.3821 67.5039C50.4426 67.5039 50.4777 66.8021 50.4777 65.5898C50.4777 64.3776 50.4426 63.6758 50.3821 63.6758C50.3295 63.6758 50.2865 63.4604 50.2865 63.1973C50.2865 62.9341 50.2435 62.7188 50.1909 62.7188C50.1383 62.7188 50.0953 62.5465 50.0953 62.3359C50.0953 62.1254 50.0523 61.9531 49.9997 61.9531C49.9471 61.9531 49.9041 61.7809 49.9041 61.5703C49.9041 61.3598 49.8611 61.1875 49.8085 61.1875C49.7559 61.1875 49.7129 61.1014 49.7129 60.9961C49.7129 60.8908 49.6699 60.8047 49.6173 60.8047C49.5647 60.8047 49.5217 60.7186 49.5217 60.6133C49.5217 60.508 49.4787 60.4219 49.4261 60.4219C49.3735 60.4219 49.3305 60.3357 49.3305 60.2305C49.3305 60.1252 49.2875 60.0391 49.2349 60.0391C49.1823 60.0391 49.1393 59.9529 49.1393 59.8477C49.1393 59.7424 49.0962 59.6562 49.0437 59.6562C48.9911 59.6562 48.9481 59.5701 48.9481 59.4648C48.9481 59.3596 48.905 59.2734 48.8525 59.2734C48.7999 59.2734 48.7569 59.1873 48.7569 59.082C48.7569 58.9768 48.7138 58.8906 48.6613 58.8906C48.6087 58.8906 48.5657 58.8045 48.5657 58.6992C48.5657 58.5939 48.5226 58.5078 48.4701 58.5078C48.4175 58.5078 48.3745 58.4312 48.3745 58.3376C48.3745 58.2439 48.2884 58.1052 48.1833 58.0293C48.071 57.9482 47.9921 57.7815 47.9921 57.6253C47.9921 57.4791 47.949 57.3594 47.8964 57.3594C47.8439 57.3594 47.8008 57.2732 47.8008 57.168C47.8008 57.0627 47.7578 56.9766 47.7052 56.9766C47.6527 56.9766 47.6096 56.8474 47.6096 56.6895C47.6096 56.5315 47.5666 56.4023 47.514 56.4023C47.4615 56.4023 47.4184 56.2301 47.4184 56.0195C47.4184 55.809 47.3754 55.6367 47.3228 55.6367C47.2655 55.6367 47.2272 55.2539 47.2272 54.6797C47.2272 54.1055 47.189 53.7227 47.1316 53.7227C47.0791 53.7227 47.036 53.5708 47.036 53.3852C47.036 53.1131 46.9531 52.9647 46.6083 52.6196C46.1892 52.1999 46.1682 52.1914 45.5567 52.1914C45.2045 52.1914 44.9328 52.233 44.9328 52.2871ZM67.686 95.2578C67.686 95.832 67.6478 96.2148 67.5904 96.2148C67.5378 96.2148 67.4948 96.344 67.4948 96.502C67.4948 96.6599 67.4518 96.7891 67.3992 96.7891C67.3466 96.7891 67.3036 96.8556 67.3036 96.9369C67.3036 97.1284 66.8778 97.5547 66.6865 97.5547C66.6052 97.5547 66.5388 97.5978 66.5388 97.6504C66.5388 97.714 56.66 97.7461 37.0935 97.7461C17.5269 97.7461 7.64814 97.714 7.64814 97.6504C7.64814 97.5978 7.58169 97.5547 7.50043 97.5547C7.30913 97.5547 6.88332 97.1284 6.88332 96.9369C6.88332 96.8556 6.8403 96.7891 6.78772 96.7891C6.73514 96.7891 6.69212 96.6599 6.69212 96.502C6.69212 96.344 6.6491 96.2148 6.59652 96.2148C6.53916 96.2148 6.50092 95.832 6.50092 95.2578V94.3008H67.686V95.2578Z" fill="#D50032"/>
<path d="M16 0H29V3H16V0Z" fill="#D50032"/>
<path d="M44 0H57V3H44V0Z" fill="#D50032"/>
</svg>
