<svg width="25" height="15" viewBox="0 0 25 15" fill="none" xmlns="http://www.w3.org/2000/svg">
<path d="M12.6359 14.5312C15.8909 14.5312 14.7303 12.4706 14.9816 11.8781C14.9778 11.4356 14.9741 11.01 14.9891 10.7513C15.1953 10.8094 15.6819 11.0559 16.6869 12.0328C18.2384 13.5984 18.635 14.5312 19.8884 14.5312H22.1956C22.9269 14.5312 23.3075 14.2284 23.4978 13.9744C23.6816 13.7288 23.8616 13.2975 23.6647 12.6263C23.15 11.01 20.1481 8.21906 19.9616 7.92469C19.9897 7.87031 20.0347 7.79812 20.0581 7.76062H20.0563C20.6488 6.97781 22.91 3.58969 23.2428 2.23406C23.2438 2.23219 23.2447 2.22938 23.2447 2.22656C23.4247 1.60781 23.2597 1.20656 23.0891 0.979688C22.8322 0.640313 22.4234 0.46875 21.8713 0.46875H19.5641C18.7916 0.46875 18.2056 0.857812 17.9094 1.5675C17.4134 2.82844 16.0203 5.42156 14.9759 6.33938C14.9441 5.03906 14.9656 4.04625 14.9825 3.30844C15.0163 1.86937 15.125 0.46875 13.6316 0.46875H10.0053C9.06969 0.46875 8.17438 1.49062 9.14375 2.70375C9.99125 3.76687 9.44844 4.35937 9.63125 7.30875C8.91875 6.54469 7.65125 4.48125 6.755 1.84406C6.50375 1.13063 6.12313 0.469687 5.05156 0.469687H2.74438C1.80875 0.469687 1.25 0.979687 1.25 1.83375C1.25 3.75187 5.49594 14.5312 12.6359 14.5312ZM5.05156 1.87594C5.255 1.87594 5.27563 1.87594 5.42656 2.30438C6.34438 5.00719 8.40313 9.00656 9.90688 9.00656C11.0366 9.00656 11.0366 7.84875 11.0366 7.41281L11.0356 3.94219C10.9738 2.79375 10.5556 2.22187 10.2809 1.875L13.5697 1.87875C13.5716 1.89469 13.5509 5.71781 13.5791 6.64406C13.5791 7.95937 14.6234 8.71313 16.2538 7.06313C17.9741 5.12156 19.1638 2.21906 19.2116 2.10094C19.2819 1.93219 19.3428 1.875 19.5641 1.875H21.8713H21.8806C21.8797 1.87781 21.8797 1.88062 21.8788 1.88344C21.6678 2.86781 19.5856 6.00469 18.8891 6.97875C18.8778 6.99375 18.8675 7.00969 18.8572 7.02563C18.5506 7.52625 18.3013 8.07937 18.8994 8.8575H18.9003C18.9547 8.92313 19.0963 9.07687 19.3025 9.29062C19.9438 9.9525 22.1431 12.2156 22.3381 13.1156C22.2088 13.1362 22.0681 13.1212 19.8884 13.1259C19.4244 13.1259 19.0616 12.4322 17.6769 11.0353C16.4319 9.82406 15.6238 9.32906 14.8878 9.32906C13.4591 9.32906 13.5631 10.4887 13.5763 11.8912C13.5809 13.4119 13.5716 12.9309 13.5819 13.0266C13.4984 13.0594 13.2594 13.125 12.6359 13.125C6.6875 13.125 2.81375 3.68344 2.66469 1.87875C2.71625 1.87406 3.42594 1.87687 5.05156 1.87594Z" fill="white"/>
</svg>
