<svg width="98" height="98" viewBox="0 0 98 98" fill="none" xmlns="http://www.w3.org/2000/svg">
<path d="M23.3516 34.4529H26.2227V66.4179H23.3516V34.4529Z" fill="black"/>
<path d="M91.4168 0H29.9346L23.3516 6.58323V31.5818H26.2227V25.8397H95.1289V89.3867H82.209V92.2578H93.0989L90.2278 95.1289H37.7068V98H91.4168L98 91.4168V6.58323L91.4168 0ZM31.1238 2.87109H90.2278L93.0989 5.74219H28.2527L31.1238 2.87109ZM26.2227 22.9686V8.61328H95.1289V22.9686H26.2227Z" fill="black"/>
<path d="M35.3145 60.4842C35.3145 74.4685 46.6915 85.8455 60.6758 85.8455C74.6601 85.8455 86.0369 74.4685 86.0369 60.4842C86.0369 46.4999 74.6601 35.123 60.6758 35.123C46.6915 35.123 35.3145 46.4999 35.3145 60.4842ZM83.1658 60.4842C83.1658 72.8854 73.0768 82.9744 60.6758 82.9744C48.2746 82.9744 38.1855 72.8854 38.1855 60.4842C38.1855 48.083 48.2746 37.9941 60.6758 37.9941C73.0768 37.9941 83.1658 48.083 83.1658 60.4842Z" fill="black"/>
<path d="M41.0471 60.4842C41.0471 71.3074 49.8526 80.1129 60.6758 80.1129C65.3456 80.1129 69.8706 78.4446 73.4174 75.4152L71.5527 73.2322C68.5254 75.8179 64.6624 77.2418 60.6758 77.2418C51.4357 77.2418 43.9182 69.7245 43.9182 60.4842C43.9182 60.0005 43.94 59.522 43.9804 59.0486H57.2102L62.9522 64.7908H76.8684C76.2289 67.1953 75.0598 69.4456 73.4237 71.3612L75.6069 73.2259C78.6361 69.6793 80.3044 65.1543 80.3044 60.4842C80.3044 49.6609 71.4991 40.8557 60.6758 40.8557C49.8526 40.8557 41.0471 49.6609 41.0471 60.4842ZM76.8713 56.1777H67.1592V59.0488H77.3711C77.4114 59.5222 77.4333 60.0007 77.4333 60.4844C77.4333 60.9652 77.4114 61.4441 77.3705 61.9199H64.1413L58.3992 56.1777H44.4802C46.3858 49.0178 52.9241 43.7267 60.6758 43.7267C68.4274 43.7267 74.9657 49.0178 76.8713 56.1777Z" fill="black"/>
<path d="M87.9512 11.4844C85.5766 11.4844 83.6445 13.4162 83.6445 15.791C83.6445 18.1658 85.5766 20.0977 87.9512 20.0977C90.3258 20.0977 92.2578 18.1656 92.2578 15.791C92.2578 13.4164 90.3258 11.4844 87.9512 11.4844ZM87.9512 17.2266C87.1595 17.2266 86.5156 16.5827 86.5156 15.791C86.5156 14.9994 87.1595 14.3555 87.9512 14.3555C88.7428 14.3555 89.3867 14.9994 89.3867 15.791C89.3867 16.5827 88.7428 17.2266 87.9512 17.2266Z" fill="black"/>
<path d="M76.467 11.4844C74.0924 11.4844 72.1604 13.4162 72.1604 15.791C72.1604 18.1658 74.0924 20.0977 76.467 20.0977C78.8416 20.0977 80.7737 18.1658 80.7737 15.791C80.7737 13.4162 78.8416 11.4844 76.467 11.4844ZM76.467 17.2266C75.6754 17.2266 75.0315 16.5827 75.0315 15.791C75.0315 14.9994 75.6754 14.3555 76.467 14.3555C77.2587 14.3555 77.9026 14.9994 77.9026 15.791C77.9026 16.5827 77.2587 17.2266 76.467 17.2266Z" fill="black"/>
<path d="M64.9828 11.4844C62.6083 11.4844 60.6762 13.4162 60.6762 15.791C60.6762 18.1658 62.6083 20.0977 64.9828 20.0977C67.3574 20.0977 69.2895 18.1658 69.2895 15.791C69.2895 13.4162 67.3574 11.4844 64.9828 11.4844ZM64.9828 17.2266C64.1912 17.2266 63.5473 16.5827 63.5473 15.791C63.5473 14.9994 64.1912 14.3555 64.9828 14.3555C65.7745 14.3555 66.4184 14.9994 66.4184 15.791C66.4184 16.5827 65.7745 17.2266 64.9828 17.2266Z" fill="black"/>
<path d="M29.0938 20.0977H49.1912V11.4844H29.0938V20.0977ZM31.9648 14.3555H46.3201V17.2266H31.9648V14.3555Z" fill="black"/>
<path d="M3.71213 69.2891L0 73.001V77.0613L2.27639 79.3379L0 81.6143V85.6746L2.27639 87.9512L0 90.2276V94.2879L3.71213 98H31.1238L34.8359 94.2879V90.2276L32.5594 87.9512L34.8359 85.6746V81.6143L32.5594 79.3379L34.8359 77.0613V73.001L31.1238 69.2891H3.71213ZM31.9648 93.0989L29.9346 95.1289H4.90115L2.87109 93.0989V91.4168L4.90115 89.3867H10.0488V86.5156H4.90115L2.87109 84.4856V82.8035L4.90115 80.7734H29.9346L31.9648 82.8035V84.4856L29.9346 86.5156H12.9199V89.3867H29.9348L31.9648 91.4168V93.0989ZM31.9648 75.8723L29.9346 77.9023H4.90115L2.87109 75.8723V74.1902L4.90115 72.1602H29.9346L31.9648 74.1902V75.8723Z" fill="black"/>
<path d="M43.449 90.822H46.3201V93.6931H43.449V90.822Z" fill="black"/>
<path d="M75.0315 28.7107H77.9026V31.5818H75.0315V28.7107Z" fill="black"/>
<path d="M37.7068 90.822H40.5779V93.6931H37.7068V90.822Z" fill="black"/>
<path d="M80.7737 28.7107H92.2578V31.5818H80.7737V28.7107Z" fill="black"/>
</svg>
